<svg width="83" height="51" viewBox="0 0 83 51" fill="none" xmlns="http://www.w3.org/2000/svg">
<g filter="url(#filter0_d_1_179)">
<path d="M5.02833 14.3895C5.06046 14.3901 5.09237 14.384 5.12208 14.3718C5.15179 14.3596 5.17868 14.3414 5.20109 14.3184C5.22412 14.296 5.24231 14.2691 5.25454 14.2394C5.26678 14.2096 5.27279 14.1777 5.27222 14.1456V8.59711C5.27222 8.52954 5.30627 8.49549 5.37385 8.49549H6.65427C6.69492 8.49549 6.72896 8.52242 6.75589 8.57679L8.80863 14.1863C8.84928 14.3219 8.94429 14.3895 9.09316 14.3895H11.5727C11.7216 14.3895 11.7963 14.3285 11.7963 14.2066C11.7975 14.1716 11.7905 14.1368 11.776 14.105L9.459 8.27193C9.43207 8.20435 9.45239 8.15659 9.51997 8.12966C10.211 7.81819 10.746 7.34362 11.1256 6.70697C11.5051 6.07032 11.6947 5.31832 11.6947 4.45099C11.6947 3.61109 11.5255 2.86571 11.1866 2.21533C10.8631 1.58099 10.3616 1.05478 9.74354 0.701183C9.1201 0.341953 8.40875 0.162593 7.6095 0.162593H2.65041C2.61828 0.162024 2.58638 0.168042 2.55667 0.180276C2.52696 0.19251 2.50006 0.210701 2.47765 0.233727C2.45463 0.256138 2.43644 0.283029 2.4242 0.312741C2.41197 0.342452 2.40595 0.374356 2.40652 0.406483V14.1456C2.40652 14.2132 2.4304 14.2711 2.47765 14.3184C2.52491 14.3656 2.58283 14.3895 2.65041 14.3895H5.02833ZM7.14205 6.30049H5.37385C5.30627 6.30049 5.27222 6.26644 5.27222 6.19887V2.72344C5.27222 2.65586 5.30627 2.62182 5.37385 2.62182H7.14205C7.64354 2.62182 8.05003 2.78796 8.3615 3.11976C8.67296 3.45155 8.82895 3.90224 8.82895 4.47131C8.82895 5.02667 8.67296 5.47075 8.3615 5.80254C8.05003 6.13434 7.64354 6.30049 7.14205 6.30049ZM17.9138 14.5724C18.8488 14.5724 19.6754 14.3829 20.3934 14.0033C21.1113 13.6238 21.6672 13.0888 22.06 12.3977C22.4527 11.7067 22.6494 10.9003 22.6494 9.97916V4.57293C22.6494 3.66495 22.4527 2.8657 22.06 2.17468C21.6672 1.48366 21.1113 0.948629 20.3934 0.569076C19.6754 0.189522 18.8488 0 17.9138 0C16.9789 0 16.1558 0.189522 15.4445 0.569076C14.7489 0.933156 14.1736 1.4908 13.788 2.17468C13.3953 2.8657 13.1986 3.66495 13.1986 4.57293V9.97916C13.1986 10.9003 13.3953 11.7067 13.788 12.3977C14.1736 13.0816 14.7489 13.6393 15.4445 14.0033C16.1558 14.3829 16.9789 14.5724 17.9138 14.5724ZM17.9138 12.1132C17.3585 12.1132 16.9114 11.9267 16.5725 11.5543C16.2335 11.1818 16.0643 10.6971 16.0643 10.1011V4.49164C16.0643 3.88191 16.2335 3.39058 16.5725 3.01814C16.9114 2.6457 17.3585 2.45922 17.9138 2.45922C18.4829 2.45922 18.9367 2.6457 19.2756 3.01814C19.6145 3.39058 19.7837 3.88191 19.7837 4.49164V10.1011C19.7837 10.6971 19.6145 11.1818 19.2756 11.5543C18.9367 11.9267 18.4829 12.1132 17.9138 12.1132ZM28.9702 14.5521C29.8914 14.5521 30.7043 14.3727 31.4091 14.0135C32.1138 13.6543 32.659 13.1431 33.0452 12.479C33.4313 11.8149 33.6244 11.0497 33.6244 10.1824V10.1214C33.625 10.0893 33.619 10.0574 33.6067 10.0277C33.5945 9.99797 33.5763 9.97108 33.5533 9.94867C33.5309 9.92564 33.504 9.90745 33.4743 9.89522C33.4446 9.88298 33.4127 9.87697 33.3805 9.87754L31.0026 9.77591C30.84 9.77591 30.7587 9.85061 30.7587 9.99948V10.2637C30.7587 10.8191 30.5961 11.2631 30.2709 11.5949C29.9457 11.9267 29.5123 12.0929 28.9702 12.0929C28.428 12.0929 27.9946 11.9267 27.6694 11.5949C27.3442 11.2631 27.1817 10.8191 27.1817 10.2637V4.30872C27.1817 3.75336 27.3442 3.30623 27.6694 2.96733C27.9946 2.62842 28.428 2.45922 28.9702 2.45922C29.5123 2.45922 29.9457 2.62842 30.2709 2.96733C30.5961 3.30623 30.7587 3.75336 30.7587 4.30872V4.57293C30.7587 4.72181 30.84 4.7965 31.0026 4.7965L33.3805 4.69488C33.4136 4.69507 33.4462 4.68786 33.4761 4.6738C33.506 4.65973 33.5324 4.63915 33.5533 4.61358C33.599 4.56365 33.6244 4.49839 33.6244 4.43067V4.32904C33.6244 3.46171 33.4313 2.70311 33.0452 2.05274C32.659 1.40237 32.1138 0.897819 31.4091 0.53859C30.7043 0.17936 29.8914 0 28.9702 0C28.049 0 27.236 0.182917 26.5313 0.548752C25.8265 0.914587 25.2813 1.43285 24.8952 2.10355C24.509 2.77425 24.316 3.55012 24.316 4.43067V10.0808C24.316 10.975 24.509 11.7611 24.8952 12.4384C25.2748 13.1096 25.8439 13.6539 26.5313 14.0033C27.236 14.3692 28.049 14.5521 28.9702 14.5521ZM38.0754 14.3895C38.1075 14.3901 38.1394 14.384 38.1691 14.3718C38.1989 14.3596 38.2257 14.3414 38.2482 14.3184C38.2712 14.296 38.2894 14.2691 38.3016 14.2394C38.3138 14.2096 38.3199 14.1777 38.3193 14.1456V10.0808C38.3193 10.0538 38.333 10.0132 38.3599 9.95883L39.2745 8.63776C39.3015 8.59712 39.3289 8.57679 39.3558 8.57679C39.3828 8.57679 39.4031 8.59712 39.4168 8.63776L42.3028 14.2066C42.3704 14.3285 42.4654 14.3895 42.5874 14.3895H45.1889C45.3377 14.3895 45.4124 14.3351 45.4124 14.2269C45.4075 14.1839 45.3936 14.1423 45.3718 14.105L41.3882 6.42243C41.3746 6.37598 41.3746 6.32661 41.3882 6.28016L45.1482 0.447131C45.2026 0.365834 45.2127 0.298257 45.1787 0.24389C45.1447 0.189522 45.0806 0.162593 44.9856 0.162593H42.3638C42.3061 0.161376 42.2491 0.17586 42.199 0.204497C42.1489 0.233135 42.1075 0.27485 42.0793 0.325186L38.4412 5.85336C38.4275 5.894 38.4041 5.90772 38.3701 5.894C38.3361 5.88028 38.3193 5.85335 38.3193 5.81271V0.406483C38.3199 0.374356 38.3138 0.342452 38.3016 0.312741C38.2894 0.283029 38.2712 0.256138 38.2482 0.233727C38.2257 0.210701 38.1989 0.19251 38.1691 0.180276C38.1394 0.168042 38.1075 0.162024 38.0754 0.162593H35.6975C35.6654 0.162024 35.6334 0.168042 35.6037 0.180276C35.574 0.19251 35.5471 0.210701 35.5247 0.233727C35.5017 0.256138 35.4835 0.283029 35.4713 0.312741C35.459 0.342452 35.453 0.374356 35.4536 0.406483V14.1456C35.4536 14.2132 35.4775 14.2711 35.5247 14.3184C35.572 14.3656 35.6299 14.3895 35.6975 14.3895H38.0754ZM4.96736 30.6488C4.99949 30.6494 5.03139 30.6434 5.06111 30.6311C5.09082 30.6189 5.11771 30.6007 5.14012 30.5777C5.16314 30.5553 5.18134 30.5284 5.19357 30.4987C5.2058 30.469 5.21182 30.4371 5.21125 30.4049V25.1206C5.21125 25.0531 5.2453 25.019 5.31287 25.019H7.50788C8.32085 25.019 9.04235 24.8427 9.6724 24.4906C10.2952 24.1457 10.8038 23.6265 11.1357 22.9968C11.4813 22.353 11.654 21.6112 11.654 20.7713C11.654 19.9177 11.4813 19.1591 11.1357 18.495C10.7902 17.8309 10.3025 17.3162 9.6724 16.9503C9.04235 16.5845 8.32085 16.4016 7.50788 16.4016H2.58944C2.55731 16.401 2.52541 16.407 2.4957 16.4193C2.46598 16.4315 2.43909 16.4497 2.41668 16.4727C2.39366 16.4951 2.37546 16.522 2.36323 16.5517C2.351 16.5814 2.34498 16.6133 2.34555 16.6455V30.4049C2.34555 30.4725 2.36943 30.5304 2.41668 30.5777C2.46394 30.6249 2.52186 30.6488 2.58944 30.6488H4.96736ZM7.04043 22.7427H5.31287C5.2453 22.7427 5.21125 22.7087 5.21125 22.6411V18.9828C5.21125 18.9152 5.2453 18.8811 5.31287 18.8811H7.04043C7.56885 18.8811 7.99211 19.0574 8.31069 19.4096C8.62927 19.7617 8.7883 20.2362 8.7883 20.8323C8.7883 21.415 8.62927 21.8789 8.31069 22.2245C7.99211 22.57 7.56885 22.7427 7.04043 22.7427ZM15.2311 30.6488C15.3667 30.6488 15.4546 30.5812 15.4953 30.4456L15.9627 28.4538C15.9764 28.3994 16.01 28.3725 16.0643 28.3725H19.865C19.9193 28.3725 19.9529 28.3994 19.9666 28.4538L20.434 30.4456C20.4747 30.5812 20.5697 30.6488 20.7186 30.6488H23.1981C23.347 30.6488 23.4217 30.5878 23.4217 30.4659L23.4014 30.3846L19.743 16.6252C19.7024 16.4895 19.6074 16.4219 19.4585 16.4219H16.5115C16.3626 16.4219 16.2676 16.4895 16.2269 16.6252L12.5686 30.3846C12.5279 30.5609 12.5955 30.6488 12.7718 30.6488H15.2311ZM19.2959 26.1572H16.6131C16.5834 26.1562 16.5548 26.1455 16.5318 26.1267C16.5049 26.1064 16.4978 26.0759 16.5115 26.0352L17.8732 20.1412C17.8869 20.0869 17.9072 20.0599 17.9342 20.0599C17.9611 20.0599 17.9814 20.0869 17.9951 20.1412L19.3975 26.0352C19.4112 26.0759 19.4041 26.1064 19.3772 26.1267C19.3542 26.1455 19.3256 26.1562 19.2959 26.1572ZM27.4865 30.6488C27.5186 30.6494 27.5506 30.6434 27.5803 30.6311C27.61 30.6189 27.6369 30.6007 27.6593 30.5777C27.6823 30.5553 27.7005 30.5284 27.7127 30.4987C27.725 30.469 27.731 30.4371 27.7304 30.4049V25.1206C27.7304 25.0531 27.7645 25.019 27.832 25.019H30.027C30.84 25.019 31.5615 24.8427 32.1916 24.4906C32.8143 24.1457 33.3229 23.6265 33.6549 22.9968C34.0004 22.353 34.1732 21.6112 34.1732 20.7713C34.1732 19.9177 34.0004 19.1591 33.6549 18.495C33.3094 17.8309 32.8216 17.3162 32.1916 16.9503C31.5615 16.5845 30.84 16.4016 30.027 16.4016H25.1086C25.0765 16.401 25.0446 16.407 25.0149 16.4193C24.9851 16.4315 24.9583 16.4497 24.9358 16.4727C24.9128 16.4951 24.8946 16.522 24.8824 16.5517C24.8702 16.5814 24.8641 16.6133 24.8647 16.6455V30.4049C24.8647 30.4725 24.8886 30.5304 24.9358 30.5777C24.9831 30.6249 25.041 30.6488 25.1086 30.6488H27.4865ZM29.5596 22.7427H27.832C27.7645 22.7427 27.7304 22.7087 27.7304 22.6411V18.9828C27.7304 18.9152 27.7645 18.8811 27.832 18.8811H29.5596C30.088 18.8811 30.5113 19.0574 30.8298 19.4096C31.1484 19.7617 31.3075 20.2362 31.3075 20.8323C31.3075 21.415 31.1484 21.8789 30.8298 22.2245C30.5113 22.57 30.088 22.7427 29.5596 22.7427ZM44.132 30.6488C44.1641 30.6494 44.196 30.6434 44.2257 30.6311C44.2555 30.6189 44.2823 30.6007 44.3048 30.5777C44.3278 30.5553 44.346 30.5284 44.3582 30.4987C44.3704 30.469 44.3765 30.4371 44.3759 30.4049V28.4335C44.3765 28.4014 44.3704 28.3695 44.3582 28.3397C44.346 28.31 44.3278 28.2831 44.3048 28.2607C44.2823 28.2377 44.2555 28.2195 44.2257 28.2073C44.196 28.195 44.1641 28.189 44.132 28.1896H38.6851C38.6175 28.1896 38.5835 28.1556 38.5835 28.088V24.8158C38.5835 24.7482 38.6175 24.7142 38.6851 24.7142H42.0793C42.1114 24.7147 42.1433 24.7087 42.173 24.6965C42.2027 24.6842 42.2296 24.6661 42.252 24.643C42.275 24.6206 42.2932 24.5937 42.3055 24.564C42.3177 24.5343 42.3237 24.5024 42.3232 24.4703V22.4988C42.3237 22.4667 42.3177 22.4348 42.3055 22.4051C42.2932 22.3754 42.275 22.3485 42.252 22.3261C42.2296 22.3031 42.2027 22.2849 42.173 22.2726C42.1433 22.2604 42.1114 22.2544 42.0793 22.2549H38.6851C38.6175 22.2549 38.5835 22.2209 38.5835 22.1533V18.9828C38.5835 18.9152 38.6175 18.8811 38.6851 18.8811H44.132C44.1641 18.8817 44.196 18.8757 44.2257 18.8635C44.2555 18.8512 44.2823 18.833 44.3048 18.81C44.3278 18.7876 44.346 18.7607 44.3582 18.731C44.3704 18.7013 44.3765 18.6694 44.3759 18.6372V16.6658C44.3765 16.6337 44.3704 16.6018 44.3582 16.5721C44.346 16.5423 44.3278 16.5155 44.3048 16.493C44.2823 16.47 44.2555 16.4518 44.2257 16.4396C44.196 16.4274 44.1641 16.4213 44.132 16.4219H35.9617C35.9296 16.4213 35.8977 16.4274 35.868 16.4396C35.8382 16.4518 35.8113 16.47 35.7889 16.493C35.7659 16.5155 35.7477 16.5423 35.7355 16.5721C35.7232 16.6018 35.7172 16.6337 35.7178 16.6658V30.4049C35.7178 30.4725 35.7417 30.5304 35.7889 30.5777C35.8362 30.6249 35.8941 30.6488 35.9617 30.6488H44.132ZM48.7253 30.6488C48.7574 30.6494 48.7893 30.6434 48.819 30.6311C48.8487 30.6189 48.8756 30.6007 48.898 30.5777C48.921 30.5553 48.9392 30.5284 48.9515 30.4987C48.9637 30.469 48.9697 30.4371 48.9692 30.4049V24.8564C48.9692 24.7889 49.0032 24.7548 49.0708 24.7548H50.3512C50.3918 24.7548 50.4259 24.7817 50.4528 24.8361L52.5056 30.4456C52.5462 30.5812 52.6412 30.6488 52.7901 30.6488H55.2696C55.4185 30.6488 55.4932 30.5878 55.4932 30.4659C55.4944 30.4309 55.4874 30.3961 55.4729 30.3643L53.1559 24.5312C53.129 24.4637 53.1493 24.4159 53.2169 24.389C53.9079 24.0775 54.4429 23.6029 54.8225 22.9663C55.2021 22.3296 55.3916 21.5776 55.3916 20.7103C55.3916 19.8704 55.2224 19.125 54.8835 18.4747C54.56 17.8403 54.0585 17.3141 53.4405 16.9605C52.817 16.6013 52.1057 16.4219 51.3064 16.4219H46.3473C46.3152 16.4213 46.2833 16.4274 46.2536 16.4396C46.2239 16.4518 46.197 16.47 46.1746 16.493C46.1516 16.5155 46.1334 16.5423 46.1211 16.5721C46.1089 16.6018 46.1029 16.6337 46.1034 16.6658V30.4049C46.1034 30.4725 46.1273 30.5304 46.1746 30.5777C46.2218 30.6249 46.2798 30.6488 46.3473 30.6488H48.7253ZM50.839 22.5598H49.0708C49.0032 22.5598 48.9692 22.5258 48.9692 22.4582V18.9828C48.9692 18.9152 49.0032 18.8811 49.0708 18.8811H50.839C51.3405 18.8811 51.7469 19.0473 52.0584 19.3791C52.3699 19.7109 52.5259 20.1616 52.5259 20.7306C52.5259 21.286 52.3699 21.7301 52.0584 22.0619C51.7469 22.3937 51.3405 22.5598 50.839 22.5598ZM6.67459 47.0707C8.05663 47.0707 9.1643 46.7085 9.99759 45.9834C10.8309 45.2583 11.2475 44.2797 11.2475 43.0465C11.2475 42.3555 11.0986 41.7661 10.8004 41.2783C10.5158 40.8052 10.1391 40.394 9.69273 40.0691C9.2522 39.7505 8.63943 39.3745 7.85339 38.9411L7.42658 38.6972C6.73556 38.3583 6.22085 38.0839 5.88195 37.8741C5.54304 37.6642 5.29255 37.4437 5.12996 37.2135C4.96736 36.9833 4.88607 36.712 4.88607 36.4006C4.88607 35.9534 5.02478 35.6044 5.30271 35.3539C5.58064 35.1034 5.96325 34.9779 6.45103 34.9779C7.03382 34.9779 7.49416 35.1405 7.83307 35.4656C8.17197 35.7908 8.34117 36.1973 8.34117 36.6851V37.0509C8.34117 37.1185 8.36505 37.1764 8.41231 37.2237C8.45956 37.2709 8.51748 37.2948 8.58506 37.2948H10.9223C10.9545 37.2954 10.9864 37.2894 11.0161 37.2771C11.0458 37.2649 11.0727 37.2467 11.0951 37.2237C11.1181 37.2013 11.1363 37.1744 11.1485 37.1447C11.1608 37.115 11.1668 37.083 11.1662 37.0509V36.6444C11.1662 35.8315 10.9696 35.1135 10.5768 34.4901C10.1841 33.8666 9.63531 33.3824 8.93057 33.0369C8.22583 32.6914 7.41998 32.5186 6.512 32.5186C5.64467 32.5186 4.87235 32.6777 4.19504 32.9963C3.51774 33.3148 2.99236 33.7686 2.61992 34.358C2.24748 34.9474 2.06101 35.6348 2.06101 36.4209C2.06101 37.2069 2.24393 37.8776 2.60976 38.433C2.9756 38.9883 3.41612 39.4426 3.93083 39.7947C4.44554 40.1468 5.10963 40.5264 5.9226 40.9328C6.58669 41.2717 7.07752 41.539 7.3961 41.7356C7.71468 41.9323 7.96162 42.1421 8.13793 42.3657C8.31424 42.5893 8.40214 42.857 8.40214 43.1685C8.40214 43.5887 8.26343 43.9342 7.9855 44.205C7.70757 44.4758 7.30464 44.6115 6.77621 44.6115C6.18021 44.6115 5.70564 44.4525 5.35352 44.1339C5.00141 43.8153 4.82509 43.419 4.82509 42.9449V42.5588C4.82566 42.5266 4.81965 42.4947 4.80741 42.465C4.79518 42.4353 4.77699 42.4084 4.75396 42.386C4.73155 42.363 4.70466 42.3448 4.67495 42.3326C4.64523 42.3203 4.61333 42.3143 4.5812 42.3149H2.24393C2.2118 42.3143 2.1799 42.3203 2.15018 42.3326C2.12047 42.3448 2.09358 42.363 2.07117 42.386C2.04814 42.4084 2.02995 42.4353 2.01772 42.465C2.00549 42.4947 1.99947 42.5266 2.00004 42.5588V43.0872C2.00004 43.8732 2.19312 44.5673 2.57927 45.1704C2.96543 45.7735 3.51063 46.241 4.21537 46.5728C4.92011 46.9046 5.73968 47.0707 6.67459 47.0707ZM17.3854 47.0707C18.3066 47.0707 19.1196 46.8914 19.8243 46.5321C20.5291 46.1729 21.0743 45.6618 21.4604 44.9977C21.8466 44.3336 22.0396 43.5684 22.0396 42.701V42.6401C22.0402 42.6079 22.0342 42.576 22.022 42.5463C22.0097 42.5166 21.9915 42.4897 21.9685 42.4673C21.9461 42.4443 21.9192 42.4261 21.8895 42.4139C21.8598 42.4016 21.8279 42.3956 21.7958 42.3962L19.4178 42.2946C19.2552 42.2946 19.1739 42.3692 19.1739 42.5181V42.7823C19.1739 43.3377 19.0114 43.7818 18.6862 44.1136C18.361 44.4454 17.9276 44.6115 17.3854 44.6115C16.8433 44.6115 16.4099 44.4454 16.0847 44.1136C15.7595 43.7818 15.5969 43.3377 15.5969 42.7823V36.8274C15.5969 36.272 15.7595 35.8249 16.0847 35.486C16.4099 35.1471 16.8433 34.9779 17.3854 34.9779C17.9276 34.9779 18.361 35.1471 18.6862 35.486C19.0114 35.8249 19.1739 36.272 19.1739 36.8274V37.0916C19.1739 37.2404 19.2552 37.3151 19.4178 37.3151L21.7958 37.2135C21.8288 37.2137 21.8615 37.2065 21.8913 37.1924C21.9212 37.1784 21.9476 37.1578 21.9685 37.1322C22.0143 37.0823 22.0396 37.017 22.0396 36.9493V36.8477C22.0396 35.9803 21.8466 35.2218 21.4604 34.5714C21.0743 33.921 20.5291 33.4165 19.8243 33.0572C19.1196 32.698 18.3066 32.5186 17.3854 32.5186C16.4642 32.5186 15.6513 32.7016 14.9465 33.0674C14.2418 33.4332 13.6966 33.9515 13.3104 34.6222C12.9243 35.2929 12.7312 36.0688 12.7312 36.9493V42.5994C12.7312 43.4937 12.9243 44.2797 13.3104 44.957C13.69 45.6282 14.2591 46.1726 14.9465 46.522C15.6513 46.8878 16.4642 47.0707 17.3854 47.0707ZM26.4906 46.9081C26.5228 46.9087 26.5547 46.9027 26.5844 46.8905C26.6141 46.8782 26.641 46.86 26.6634 46.837C26.6864 46.8146 26.7046 46.7877 26.7168 46.758C26.7291 46.7283 26.7351 46.6964 26.7345 46.6642V32.9251C26.7351 32.893 26.7291 32.8611 26.7168 32.8314C26.7046 32.8017 26.6864 32.7748 26.6634 32.7524C26.641 32.7293 26.6141 32.7111 26.5844 32.6989C26.5547 32.6867 26.5228 32.6807 26.4906 32.6812H24.1127C24.0806 32.6807 24.0487 32.6867 24.019 32.6989C23.9893 32.7111 23.9624 32.7293 23.94 32.7524C23.9169 32.7748 23.8987 32.8017 23.8865 32.8314C23.8743 32.8611 23.8683 32.893 23.8688 32.9251V46.6642C23.8688 46.7318 23.8927 46.7897 23.94 46.837C23.9872 46.8843 24.0451 46.9081 24.1127 46.9081H26.4906ZM33.1366 47.0707C34.5187 47.0707 35.6263 46.7085 36.4596 45.9834C37.2929 45.2583 37.7096 44.2797 37.7096 43.0465C37.7096 42.3555 37.5607 41.7661 37.2624 41.2783C36.9778 40.8052 36.6012 40.394 36.1548 40.0691C35.7142 39.7505 35.1015 39.3745 34.3154 38.9411L33.8886 38.6972C33.1976 38.3583 32.6829 38.0839 32.344 37.8741C32.0051 37.6642 31.7546 37.4437 31.592 37.2135C31.4294 36.9833 31.3481 36.712 31.3481 36.4006C31.3481 35.9534 31.4868 35.6044 31.7648 35.3539C32.0427 35.1034 32.4253 34.9779 32.9131 34.9779C33.4959 34.9779 33.9562 35.1405 34.2951 35.4656C34.634 35.7908 34.8032 36.1973 34.8032 36.6851V37.0509C34.8032 37.1185 34.8271 37.1764 34.8743 37.2237C34.9216 37.2709 34.9795 37.2948 35.0471 37.2948H37.3844C37.4165 37.2954 37.4484 37.2894 37.4781 37.2771C37.5078 37.2649 37.5347 37.2467 37.5571 37.2237C37.5802 37.2013 37.5984 37.1744 37.6106 37.1447C37.6228 37.115 37.6288 37.083 37.6283 37.0509V36.6444C37.6283 35.8315 37.4316 35.1135 37.0389 34.4901C36.6461 33.8666 36.0974 33.3824 35.3926 33.0369C34.6879 32.6914 33.882 32.5186 32.974 32.5186C32.1067 32.5186 31.3344 32.6777 30.6571 32.9963C29.9798 33.3148 29.4544 33.7686 29.082 34.358C28.7095 34.9474 28.5231 35.6348 28.5231 36.4209C28.5231 37.2069 28.706 37.8776 29.0718 38.433C29.4376 38.9883 29.8782 39.4426 30.3929 39.7947C30.9076 40.1468 31.5717 40.5264 32.3846 40.9328C33.0487 41.2717 33.5396 41.539 33.8581 41.7356C34.1767 41.9323 34.4237 42.1421 34.6 42.3657C34.7763 42.5893 34.8642 42.857 34.8642 43.1685C34.8642 43.5887 34.7255 43.9342 34.4475 44.205C34.1696 44.4758 33.7667 44.6115 33.2383 44.6115C32.6423 44.6115 32.1677 44.4525 31.8156 44.1339C31.4634 43.8153 31.2871 43.419 31.2871 42.9449V42.5588C31.2877 42.5266 31.2817 42.4947 31.2695 42.465C31.2572 42.4353 31.239 42.4084 31.216 42.386C31.1936 42.363 31.1667 42.3448 31.137 42.3326C31.1073 42.3203 31.0754 42.3143 31.0432 42.3149H28.706C28.6738 42.3143 28.6419 42.3203 28.6122 42.3326C28.5825 42.3448 28.5556 42.363 28.5332 42.386C28.5102 42.4084 28.492 42.4353 28.4798 42.465C28.4675 42.4947 28.4615 42.5266 28.4621 42.5588V43.0872C28.4621 43.8732 28.6552 44.5673 29.0413 45.1704C29.4275 45.7735 29.9727 46.241 30.6774 46.5728C31.3822 46.9046 32.2017 47.0707 33.1366 47.0707ZM43.7052 47.0707C45.0872 47.0707 46.1949 46.7085 47.0282 45.9834C47.8615 45.2583 48.2781 44.2797 48.2781 43.0465C48.2781 42.3555 48.1292 41.7661 47.831 41.2783C47.5464 40.8052 47.1697 40.394 46.7233 40.0691C46.2828 39.7505 45.67 39.3745 44.884 38.9411L44.4572 38.6972C43.7662 38.3583 43.2515 38.0839 42.9125 37.8741C42.5736 37.6642 42.3232 37.4437 42.1606 37.2135C41.998 36.9833 41.9167 36.712 41.9167 36.4006C41.9167 35.9534 42.0554 35.6044 42.3333 35.3539C42.6112 35.1034 42.9938 34.9779 43.4816 34.9779C44.0644 34.9779 44.5248 35.1405 44.8637 35.4656C45.2026 35.7908 45.3718 36.1973 45.3718 36.6851V37.0509C45.3718 37.1185 45.3957 37.1764 45.4429 37.2237C45.4902 37.2709 45.5481 37.2948 45.6157 37.2948H47.9529C47.9851 37.2954 48.017 37.2894 48.0467 37.2771C48.0764 37.2649 48.1033 37.2467 48.1257 37.2237C48.1487 37.2013 48.1669 37.1744 48.1791 37.1447C48.1914 37.115 48.1974 37.083 48.1968 37.0509V36.6444C48.1968 35.8315 48.0002 35.1135 47.6074 34.4901C47.2147 33.8666 46.6659 33.3824 45.9612 33.0369C45.2564 32.6914 44.4506 32.5186 43.5426 32.5186C42.6753 32.5186 41.9029 32.6777 41.2256 32.9963C40.5483 33.3148 40.023 33.7686 39.6505 34.358C39.2781 34.9474 39.0916 35.6348 39.0916 36.4209C39.0916 37.2069 39.2745 37.8776 39.6404 38.433C40.0062 38.9883 40.4467 39.4426 40.9614 39.7947C41.4761 40.1468 42.1402 40.5264 42.9532 40.9328C43.6173 41.2717 44.1081 41.539 44.4267 41.7356C44.7453 41.9323 44.9922 42.1421 45.1685 42.3657C45.3448 42.5893 45.4327 42.857 45.4327 43.1685C45.4327 43.5887 45.294 43.9342 45.0161 44.205C44.7382 44.4758 44.3352 44.6115 43.8068 44.6115C43.2108 44.6115 42.7362 44.4525 42.3841 44.1339C42.032 43.8153 41.8557 43.419 41.8557 42.9449V42.5588C41.8563 42.5266 41.8502 42.4947 41.838 42.465C41.8258 42.4353 41.8076 42.4084 41.7846 42.386C41.7621 42.363 41.7353 42.3448 41.7055 42.3326C41.6758 42.3203 41.6439 42.3143 41.6118 42.3149H39.2745C39.2424 42.3143 39.2105 42.3203 39.1808 42.3326C39.1511 42.3448 39.1242 42.363 39.1018 42.386C39.0787 42.4084 39.0606 42.4353 39.0483 42.465C39.0361 42.4947 39.0301 42.5266 39.0306 42.5588V43.0872C39.0306 43.8732 39.2237 44.5673 39.6099 45.1704C39.996 45.7735 40.5412 46.241 41.246 46.5728C41.9507 46.9046 42.7703 47.0707 43.7052 47.0707ZM54.477 47.0911C55.4119 47.0911 56.2386 46.9015 56.9565 46.522C57.6745 46.1424 58.2304 45.6074 58.6231 44.9164C59.0159 44.2253 59.2125 43.419 59.2125 42.4978V37.0916C59.2125 36.1836 59.0159 35.3843 58.6231 34.6933C58.2304 34.0023 57.6745 33.4673 56.9565 33.0877C56.2386 32.7082 55.4119 32.5186 54.477 32.5186C53.5421 32.5186 52.719 32.7082 52.0076 33.0877C51.3121 33.4518 50.7368 34.0094 50.3512 34.6933C49.9584 35.3843 49.7618 36.1836 49.7618 37.0916V42.4978C49.7618 43.419 49.9584 44.2253 50.3512 44.9164C50.7368 45.6003 51.3121 46.1579 52.0076 46.522C52.719 46.9015 53.5421 47.0911 54.477 47.0911ZM54.477 44.6318C53.9216 44.6318 53.4745 44.4454 53.1356 44.0729C52.7967 43.7005 52.6275 43.2157 52.6275 42.6197V37.0103C52.6275 36.4006 52.7967 35.9092 53.1356 35.5368C53.4745 35.1643 53.9216 34.9779 54.477 34.9779C55.0461 34.9779 55.4998 35.1643 55.8387 35.5368C56.1776 35.9092 56.3468 36.4006 56.3468 37.0103V42.6197C56.3468 43.2157 56.1776 43.7005 55.8387 44.0729C55.4998 44.4454 55.0461 44.6318 54.477 44.6318ZM63.7448 46.9081C63.7769 46.9087 63.8088 46.9027 63.8385 46.8905C63.8683 46.8782 63.8951 46.86 63.9176 46.837C63.9406 46.8146 63.9588 46.7877 63.971 46.758C63.9832 46.7283 63.9893 46.6964 63.9887 46.6642V41.1158C63.9887 41.0482 64.0227 41.0141 64.0903 41.0141H65.3707C65.4114 41.0141 65.4454 41.0411 65.4724 41.0954L67.5251 46.7049C67.5657 46.8406 67.6608 46.9081 67.8096 46.9081H70.2892C70.438 46.9081 70.5127 46.8472 70.5127 46.7252C70.5139 46.6902 70.507 46.6554 70.4924 46.6236L68.1755 40.7906C68.1485 40.723 68.1689 40.6752 68.2364 40.6483C68.9275 40.3368 69.4625 39.8623 69.842 39.2256C70.2216 38.589 70.4111 37.837 70.4111 36.9696C70.4111 36.1297 70.2419 35.3843 69.903 34.734C69.5796 34.0996 69.0781 33.5734 68.46 33.2198C67.8366 32.8606 67.1252 32.6812 66.326 32.6812H61.3669C61.3348 32.6807 61.3028 32.6867 61.2731 32.6989C61.2434 32.7111 61.2165 32.7293 61.1941 32.7524C61.1711 32.7748 61.1529 32.8017 61.1407 32.8314C61.1284 32.8611 61.1224 32.893 61.123 32.9251V46.6642C61.123 46.7318 61.1469 46.7897 61.1941 46.837C61.2414 46.8843 61.2993 46.9081 61.3669 46.9081H63.7448ZM65.8585 38.8191H64.0903C64.0227 38.8191 63.9887 38.7851 63.9887 38.7175V35.2421C63.9887 35.1745 64.0227 35.1405 64.0903 35.1405H65.8585C66.36 35.1405 66.7665 35.3066 67.078 35.6384C67.3894 35.9702 67.5454 36.4209 67.5454 36.99C67.5454 37.5453 67.3894 37.9894 67.078 38.3212C66.7665 38.653 66.36 38.8191 65.8585 38.8191ZM76.4271 47.0707C77.8091 47.0707 78.9168 46.7085 79.7501 45.9834C80.5834 45.2583 81 44.2797 81 43.0465C81 42.3555 80.8511 41.7661 80.5529 41.2783C80.2682 40.8052 79.8916 40.394 79.4452 40.0691C79.0047 39.7505 78.3919 39.3745 77.6059 38.9411L77.1791 38.6972C76.488 38.3583 75.9733 38.0839 75.6344 37.8741C75.2955 37.6642 75.045 37.4437 74.8824 37.2135C74.7198 36.9833 74.6385 36.712 74.6385 36.4006C74.6385 35.9534 74.7773 35.6044 75.0552 35.3539C75.3331 35.1034 75.7157 34.9779 76.2035 34.9779C76.7863 34.9779 77.2466 35.1405 77.5855 35.4656C77.9245 35.7908 78.0937 36.1973 78.0937 36.6851V37.0509C78.0937 37.1185 78.1175 37.1764 78.1648 37.2237C78.212 37.2709 78.27 37.2948 78.3375 37.2948H80.6748C80.7069 37.2954 80.7388 37.2894 80.7686 37.2771C80.7983 37.2649 80.8252 37.2467 80.8476 37.2237C80.8706 37.2013 80.8888 37.1744 80.901 37.1447C80.9133 37.115 80.9193 37.083 80.9187 37.0509V36.6444C80.9187 35.8315 80.7221 35.1135 80.3293 34.4901C79.9365 33.8666 79.3878 33.3824 78.6831 33.0369C77.9783 32.6914 77.1725 32.5186 76.2645 32.5186C75.3971 32.5186 74.6248 32.6777 73.9475 32.9963C73.2702 33.3148 72.7448 33.7686 72.3724 34.358C72 34.9474 71.8135 35.6348 71.8135 36.4209C71.8135 37.2069 71.9964 37.8776 72.3622 38.433C72.7281 38.9883 73.1686 39.4426 73.6833 39.7947C74.198 40.1468 74.8621 40.5264 75.6751 40.9328C76.3392 41.2717 76.83 41.539 77.1486 41.7356C77.4672 41.9323 77.7141 42.1421 77.8904 42.3657C78.0667 42.5893 78.1546 42.857 78.1546 43.1685C78.1546 43.5887 78.0159 43.9342 77.738 44.205C77.46 44.4758 77.0571 44.6115 76.5287 44.6115C75.9327 44.6115 75.4581 44.4525 75.106 44.1339C74.7539 43.8153 74.5776 43.419 74.5776 42.9449V42.5588C74.5781 42.5266 74.5721 42.4947 74.5599 42.465C74.5477 42.4353 74.5295 42.4084 74.5064 42.386C74.484 42.363 74.4571 42.3448 74.4274 42.3326C74.3977 42.3203 74.3658 42.3143 74.3337 42.3149H71.9964C71.9643 42.3143 71.9324 42.3203 71.9027 42.3326C71.873 42.3448 71.8461 42.363 71.8237 42.386C71.8006 42.4084 71.7824 42.4353 71.7702 42.465C71.758 42.4947 71.7519 42.5266 71.7525 42.5588V43.0872C71.7525 43.8732 71.9456 44.5673 72.3318 45.1704C72.7179 45.7735 73.2631 46.241 73.9678 46.5728C74.6726 46.9046 75.4922 47.0707 76.4271 47.0707Z" fill="black"/>
</g>
<path d="M5.02833 14.3895C5.06046 14.3901 5.09237 14.384 5.12208 14.3718C5.15179 14.3596 5.17868 14.3414 5.20109 14.3184C5.22412 14.296 5.24231 14.2691 5.25454 14.2394C5.26678 14.2096 5.27279 14.1777 5.27222 14.1456V8.59711C5.27222 8.52954 5.30627 8.49549 5.37385 8.49549H6.65427C6.69492 8.49549 6.72896 8.52242 6.75589 8.57679L8.80863 14.1863C8.84928 14.3219 8.94429 14.3895 9.09316 14.3895H11.5727C11.7216 14.3895 11.7963 14.3285 11.7963 14.2066C11.7975 14.1716 11.7905 14.1368 11.776 14.105L9.459 8.27193C9.43207 8.20435 9.45239 8.15659 9.51997 8.12966C10.211 7.81819 10.746 7.34362 11.1256 6.70697C11.5051 6.07032 11.6947 5.31832 11.6947 4.45099C11.6947 3.61109 11.5255 2.86571 11.1866 2.21533C10.8631 1.58099 10.3616 1.05478 9.74354 0.701183C9.1201 0.341953 8.40875 0.162593 7.6095 0.162593H2.65041C2.61828 0.162024 2.58638 0.168042 2.55667 0.180276C2.52696 0.19251 2.50006 0.210701 2.47765 0.233727C2.45463 0.256138 2.43644 0.283029 2.4242 0.312741C2.41197 0.342452 2.40595 0.374356 2.40652 0.406483V14.1456C2.40652 14.2132 2.4304 14.2711 2.47765 14.3184C2.52491 14.3656 2.58283 14.3895 2.65041 14.3895H5.02833ZM7.14205 6.30049H5.37385C5.30627 6.30049 5.27222 6.26644 5.27222 6.19887V2.72344C5.27222 2.65586 5.30627 2.62182 5.37385 2.62182H7.14205C7.64354 2.62182 8.05003 2.78796 8.3615 3.11976C8.67296 3.45155 8.82895 3.90224 8.82895 4.47131C8.82895 5.02667 8.67296 5.47075 8.3615 5.80254C8.05003 6.13434 7.64354 6.30049 7.14205 6.30049ZM17.9138 14.5724C18.8488 14.5724 19.6754 14.3829 20.3934 14.0033C21.1113 13.6238 21.6672 13.0888 22.06 12.3977C22.4527 11.7067 22.6494 10.9003 22.6494 9.97916V4.57293C22.6494 3.66495 22.4527 2.8657 22.06 2.17468C21.6672 1.48366 21.1113 0.948629 20.3934 0.569076C19.6754 0.189522 18.8488 0 17.9138 0C16.9789 0 16.1558 0.189522 15.4445 0.569076C14.7489 0.933156 14.1736 1.4908 13.788 2.17468C13.3953 2.8657 13.1986 3.66495 13.1986 4.57293V9.97916C13.1986 10.9003 13.3953 11.7067 13.788 12.3977C14.1736 13.0816 14.7489 13.6393 15.4445 14.0033C16.1558 14.3829 16.9789 14.5724 17.9138 14.5724ZM17.9138 12.1132C17.3585 12.1132 16.9114 11.9267 16.5725 11.5543C16.2335 11.1818 16.0643 10.6971 16.0643 10.1011V4.49164C16.0643 3.88191 16.2335 3.39058 16.5725 3.01814C16.9114 2.6457 17.3585 2.45922 17.9138 2.45922C18.4829 2.45922 18.9367 2.6457 19.2756 3.01814C19.6145 3.39058 19.7837 3.88191 19.7837 4.49164V10.1011C19.7837 10.6971 19.6145 11.1818 19.2756 11.5543C18.9367 11.9267 18.4829 12.1132 17.9138 12.1132ZM28.9702 14.5521C29.8914 14.5521 30.7043 14.3727 31.4091 14.0135C32.1138 13.6543 32.659 13.1431 33.0452 12.479C33.4313 11.8149 33.6244 11.0497 33.6244 10.1824V10.1214C33.625 10.0893 33.619 10.0574 33.6067 10.0277C33.5945 9.99797 33.5763 9.97108 33.5533 9.94867C33.5309 9.92564 33.504 9.90745 33.4743 9.89522C33.4446 9.88298 33.4127 9.87697 33.3805 9.87754L31.0026 9.77591C30.84 9.77591 30.7587 9.85061 30.7587 9.99948V10.2637C30.7587 10.8191 30.5961 11.2631 30.2709 11.5949C29.9457 11.9267 29.5123 12.0929 28.9702 12.0929C28.428 12.0929 27.9946 11.9267 27.6694 11.5949C27.3442 11.2631 27.1817 10.8191 27.1817 10.2637V4.30872C27.1817 3.75336 27.3442 3.30623 27.6694 2.96733C27.9946 2.62842 28.428 2.45922 28.9702 2.45922C29.5123 2.45922 29.9457 2.62842 30.2709 2.96733C30.5961 3.30623 30.7587 3.75336 30.7587 4.30872V4.57293C30.7587 4.72181 30.84 4.7965 31.0026 4.7965L33.3805 4.69488C33.4136 4.69507 33.4462 4.68786 33.4761 4.6738C33.506 4.65973 33.5324 4.63915 33.5533 4.61358C33.599 4.56365 33.6244 4.49839 33.6244 4.43067V4.32904C33.6244 3.46171 33.4313 2.70311 33.0452 2.05274C32.659 1.40237 32.1138 0.897819 31.4091 0.53859C30.7043 0.17936 29.8914 0 28.9702 0C28.049 0 27.236 0.182917 26.5313 0.548752C25.8265 0.914587 25.2813 1.43285 24.8952 2.10355C24.509 2.77425 24.316 3.55012 24.316 4.43067V10.0808C24.316 10.975 24.509 11.7611 24.8952 12.4384C25.2748 13.1096 25.8439 13.6539 26.5313 14.0033C27.236 14.3692 28.049 14.5521 28.9702 14.5521ZM38.0754 14.3895C38.1075 14.3901 38.1394 14.384 38.1691 14.3718C38.1989 14.3596 38.2257 14.3414 38.2482 14.3184C38.2712 14.296 38.2894 14.2691 38.3016 14.2394C38.3138 14.2096 38.3199 14.1777 38.3193 14.1456V10.0808C38.3193 10.0538 38.333 10.0132 38.3599 9.95883L39.2745 8.63776C39.3015 8.59712 39.3289 8.57679 39.3558 8.57679C39.3828 8.57679 39.4031 8.59712 39.4168 8.63776L42.3028 14.2066C42.3704 14.3285 42.4654 14.3895 42.5874 14.3895H45.1889C45.3377 14.3895 45.4124 14.3351 45.4124 14.2269C45.4075 14.1839 45.3936 14.1423 45.3718 14.105L41.3882 6.42243C41.3746 6.37598 41.3746 6.32661 41.3882 6.28016L45.1482 0.447131C45.2026 0.365834 45.2127 0.298257 45.1787 0.24389C45.1447 0.189522 45.0806 0.162593 44.9856 0.162593H42.3638C42.3061 0.161376 42.2491 0.17586 42.199 0.204497C42.1489 0.233135 42.1075 0.27485 42.0793 0.325186L38.4412 5.85336C38.4275 5.894 38.4041 5.90772 38.3701 5.894C38.3361 5.88028 38.3193 5.85335 38.3193 5.81271V0.406483C38.3199 0.374356 38.3138 0.342452 38.3016 0.312741C38.2894 0.283029 38.2712 0.256138 38.2482 0.233727C38.2257 0.210701 38.1989 0.19251 38.1691 0.180276C38.1394 0.168042 38.1075 0.162024 38.0754 0.162593H35.6975C35.6654 0.162024 35.6334 0.168042 35.6037 0.180276C35.574 0.19251 35.5471 0.210701 35.5247 0.233727C35.5017 0.256138 35.4835 0.283029 35.4713 0.312741C35.459 0.342452 35.453 0.374356 35.4536 0.406483V14.1456C35.4536 14.2132 35.4775 14.2711 35.5247 14.3184C35.572 14.3656 35.6299 14.3895 35.6975 14.3895H38.0754ZM4.96736 30.6488C4.99949 30.6494 5.03139 30.6434 5.06111 30.6311C5.09082 30.6189 5.11771 30.6007 5.14012 30.5777C5.16314 30.5553 5.18134 30.5284 5.19357 30.4987C5.2058 30.469 5.21182 30.4371 5.21125 30.4049V25.1206C5.21125 25.0531 5.2453 25.019 5.31287 25.019H7.50788C8.32085 25.019 9.04235 24.8427 9.6724 24.4906C10.2952 24.1457 10.8038 23.6265 11.1357 22.9968C11.4813 22.353 11.654 21.6112 11.654 20.7713C11.654 19.9177 11.4813 19.1591 11.1357 18.495C10.7902 17.8309 10.3025 17.3162 9.6724 16.9503C9.04235 16.5845 8.32085 16.4016 7.50788 16.4016H2.58944C2.55731 16.401 2.52541 16.407 2.4957 16.4193C2.46598 16.4315 2.43909 16.4497 2.41668 16.4727C2.39366 16.4951 2.37546 16.522 2.36323 16.5517C2.351 16.5814 2.34498 16.6133 2.34555 16.6455V30.4049C2.34555 30.4725 2.36943 30.5304 2.41668 30.5777C2.46394 30.6249 2.52186 30.6488 2.58944 30.6488H4.96736ZM7.04043 22.7427H5.31287C5.2453 22.7427 5.21125 22.7087 5.21125 22.6411V18.9828C5.21125 18.9152 5.2453 18.8811 5.31287 18.8811H7.04043C7.56885 18.8811 7.99211 19.0574 8.31069 19.4096C8.62927 19.7617 8.7883 20.2362 8.7883 20.8323C8.7883 21.415 8.62927 21.8789 8.31069 22.2245C7.99211 22.57 7.56885 22.7427 7.04043 22.7427ZM15.2311 30.6488C15.3667 30.6488 15.4546 30.5812 15.4953 30.4456L15.9627 28.4538C15.9764 28.3994 16.01 28.3725 16.0643 28.3725H19.865C19.9193 28.3725 19.9529 28.3994 19.9666 28.4538L20.434 30.4456C20.4747 30.5812 20.5697 30.6488 20.7186 30.6488H23.1981C23.347 30.6488 23.4217 30.5878 23.4217 30.4659L23.4014 30.3846L19.743 16.6252C19.7024 16.4895 19.6074 16.4219 19.4585 16.4219H16.5115C16.3626 16.4219 16.2676 16.4895 16.2269 16.6252L12.5686 30.3846C12.5279 30.5609 12.5955 30.6488 12.7718 30.6488H15.2311ZM19.2959 26.1572H16.6131C16.5834 26.1562 16.5548 26.1455 16.5318 26.1267C16.5049 26.1064 16.4978 26.0759 16.5115 26.0352L17.8732 20.1412C17.8869 20.0869 17.9072 20.0599 17.9342 20.0599C17.9611 20.0599 17.9814 20.0869 17.9951 20.1412L19.3975 26.0352C19.4112 26.0759 19.4041 26.1064 19.3772 26.1267C19.3542 26.1455 19.3256 26.1562 19.2959 26.1572ZM27.4865 30.6488C27.5186 30.6494 27.5506 30.6434 27.5803 30.6311C27.61 30.6189 27.6369 30.6007 27.6593 30.5777C27.6823 30.5553 27.7005 30.5284 27.7127 30.4987C27.725 30.469 27.731 30.4371 27.7304 30.4049V25.1206C27.7304 25.0531 27.7645 25.019 27.832 25.019H30.027C30.84 25.019 31.5615 24.8427 32.1916 24.4906C32.8143 24.1457 33.3229 23.6265 33.6549 22.9968C34.0004 22.353 34.1732 21.6112 34.1732 20.7713C34.1732 19.9177 34.0004 19.1591 33.6549 18.495C33.3094 17.8309 32.8216 17.3162 32.1916 16.9503C31.5615 16.5845 30.84 16.4016 30.027 16.4016H25.1086C25.0765 16.401 25.0446 16.407 25.0149 16.4193C24.9851 16.4315 24.9583 16.4497 24.9358 16.4727C24.9128 16.4951 24.8946 16.522 24.8824 16.5517C24.8702 16.5814 24.8641 16.6133 24.8647 16.6455V30.4049C24.8647 30.4725 24.8886 30.5304 24.9358 30.5777C24.9831 30.6249 25.041 30.6488 25.1086 30.6488H27.4865ZM29.5596 22.7427H27.832C27.7645 22.7427 27.7304 22.7087 27.7304 22.6411V18.9828C27.7304 18.9152 27.7645 18.8811 27.832 18.8811H29.5596C30.088 18.8811 30.5113 19.0574 30.8298 19.4096C31.1484 19.7617 31.3075 20.2362 31.3075 20.8323C31.3075 21.415 31.1484 21.8789 30.8298 22.2245C30.5113 22.57 30.088 22.7427 29.5596 22.7427ZM44.132 30.6488C44.1641 30.6494 44.196 30.6434 44.2257 30.6311C44.2555 30.6189 44.2823 30.6007 44.3048 30.5777C44.3278 30.5553 44.346 30.5284 44.3582 30.4987C44.3704 30.469 44.3765 30.4371 44.3759 30.4049V28.4335C44.3765 28.4014 44.3704 28.3695 44.3582 28.3397C44.346 28.31 44.3278 28.2831 44.3048 28.2607C44.2823 28.2377 44.2555 28.2195 44.2257 28.2073C44.196 28.195 44.1641 28.189 44.132 28.1896H38.6851C38.6175 28.1896 38.5835 28.1556 38.5835 28.088V24.8158C38.5835 24.7482 38.6175 24.7142 38.6851 24.7142H42.0793C42.1114 24.7147 42.1433 24.7087 42.173 24.6965C42.2027 24.6842 42.2296 24.6661 42.252 24.643C42.275 24.6206 42.2932 24.5937 42.3055 24.564C42.3177 24.5343 42.3237 24.5024 42.3232 24.4703V22.4988C42.3237 22.4667 42.3177 22.4348 42.3055 22.4051C42.2932 22.3754 42.275 22.3485 42.252 22.3261C42.2296 22.3031 42.2027 22.2849 42.173 22.2726C42.1433 22.2604 42.1114 22.2544 42.0793 22.2549H38.6851C38.6175 22.2549 38.5835 22.2209 38.5835 22.1533V18.9828C38.5835 18.9152 38.6175 18.8811 38.6851 18.8811H44.132C44.1641 18.8817 44.196 18.8757 44.2257 18.8635C44.2555 18.8512 44.2823 18.833 44.3048 18.81C44.3278 18.7876 44.346 18.7607 44.3582 18.731C44.3704 18.7013 44.3765 18.6694 44.3759 18.6372V16.6658C44.3765 16.6337 44.3704 16.6018 44.3582 16.5721C44.346 16.5423 44.3278 16.5155 44.3048 16.493C44.2823 16.47 44.2555 16.4518 44.2257 16.4396C44.196 16.4274 44.1641 16.4213 44.132 16.4219H35.9617C35.9296 16.4213 35.8977 16.4274 35.868 16.4396C35.8382 16.4518 35.8113 16.47 35.7889 16.493C35.7659 16.5155 35.7477 16.5423 35.7355 16.5721C35.7232 16.6018 35.7172 16.6337 35.7178 16.6658V30.4049C35.7178 30.4725 35.7417 30.5304 35.7889 30.5777C35.8362 30.6249 35.8941 30.6488 35.9617 30.6488H44.132ZM48.7253 30.6488C48.7574 30.6494 48.7893 30.6434 48.819 30.6311C48.8487 30.6189 48.8756 30.6007 48.898 30.5777C48.921 30.5553 48.9392 30.5284 48.9515 30.4987C48.9637 30.469 48.9697 30.4371 48.9692 30.4049V24.8564C48.9692 24.7889 49.0032 24.7548 49.0708 24.7548H50.3512C50.3918 24.7548 50.4259 24.7817 50.4528 24.8361L52.5056 30.4456C52.5462 30.5812 52.6412 30.6488 52.7901 30.6488H55.2696C55.4185 30.6488 55.4932 30.5878 55.4932 30.4659C55.4944 30.4309 55.4874 30.3961 55.4729 30.3643L53.1559 24.5312C53.129 24.4637 53.1493 24.4159 53.2169 24.389C53.9079 24.0775 54.4429 23.6029 54.8225 22.9663C55.2021 22.3296 55.3916 21.5776 55.3916 20.7103C55.3916 19.8704 55.2224 19.125 54.8835 18.4747C54.56 17.8403 54.0585 17.3141 53.4405 16.9605C52.817 16.6013 52.1057 16.4219 51.3064 16.4219H46.3473C46.3152 16.4213 46.2833 16.4274 46.2536 16.4396C46.2239 16.4518 46.197 16.47 46.1746 16.493C46.1516 16.5155 46.1334 16.5423 46.1211 16.5721C46.1089 16.6018 46.1029 16.6337 46.1034 16.6658V30.4049C46.1034 30.4725 46.1273 30.5304 46.1746 30.5777C46.2218 30.6249 46.2798 30.6488 46.3473 30.6488H48.7253ZM50.839 22.5598H49.0708C49.0032 22.5598 48.9692 22.5258 48.9692 22.4582V18.9828C48.9692 18.9152 49.0032 18.8811 49.0708 18.8811H50.839C51.3405 18.8811 51.7469 19.0473 52.0584 19.3791C52.3699 19.7109 52.5259 20.1616 52.5259 20.7306C52.5259 21.286 52.3699 21.7301 52.0584 22.0619C51.7469 22.3937 51.3405 22.5598 50.839 22.5598ZM6.67459 47.0707C8.05663 47.0707 9.1643 46.7085 9.99759 45.9834C10.8309 45.2583 11.2475 44.2797 11.2475 43.0465C11.2475 42.3555 11.0986 41.7661 10.8004 41.2783C10.5158 40.8052 10.1391 40.394 9.69273 40.0691C9.2522 39.7505 8.63943 39.3745 7.85339 38.9411L7.42658 38.6972C6.73556 38.3583 6.22085 38.0839 5.88195 37.8741C5.54304 37.6642 5.29255 37.4437 5.12996 37.2135C4.96736 36.9833 4.88607 36.712 4.88607 36.4006C4.88607 35.9534 5.02478 35.6044 5.30271 35.3539C5.58064 35.1034 5.96325 34.9779 6.45103 34.9779C7.03382 34.9779 7.49416 35.1405 7.83307 35.4656C8.17197 35.7908 8.34117 36.1973 8.34117 36.6851V37.0509C8.34117 37.1185 8.36505 37.1764 8.41231 37.2237C8.45956 37.2709 8.51748 37.2948 8.58506 37.2948H10.9223C10.9545 37.2954 10.9864 37.2894 11.0161 37.2771C11.0458 37.2649 11.0727 37.2467 11.0951 37.2237C11.1181 37.2013 11.1363 37.1744 11.1485 37.1447C11.1608 37.115 11.1668 37.083 11.1662 37.0509V36.6444C11.1662 35.8315 10.9696 35.1135 10.5768 34.4901C10.1841 33.8666 9.63531 33.3824 8.93057 33.0369C8.22583 32.6914 7.41998 32.5186 6.512 32.5186C5.64467 32.5186 4.87235 32.6777 4.19504 32.9963C3.51774 33.3148 2.99236 33.7686 2.61992 34.358C2.24748 34.9474 2.06101 35.6348 2.06101 36.4209C2.06101 37.2069 2.24393 37.8776 2.60976 38.433C2.9756 38.9883 3.41612 39.4426 3.93083 39.7947C4.44554 40.1468 5.10963 40.5264 5.9226 40.9328C6.58669 41.2717 7.07752 41.539 7.3961 41.7356C7.71468 41.9323 7.96162 42.1421 8.13793 42.3657C8.31424 42.5893 8.40214 42.857 8.40214 43.1685C8.40214 43.5887 8.26343 43.9342 7.9855 44.205C7.70757 44.4758 7.30464 44.6115 6.77621 44.6115C6.18021 44.6115 5.70564 44.4525 5.35352 44.1339C5.00141 43.8153 4.82509 43.419 4.82509 42.9449V42.5588C4.82566 42.5266 4.81965 42.4947 4.80741 42.465C4.79518 42.4353 4.77699 42.4084 4.75396 42.386C4.73155 42.363 4.70466 42.3448 4.67495 42.3326C4.64523 42.3203 4.61333 42.3143 4.5812 42.3149H2.24393C2.2118 42.3143 2.1799 42.3203 2.15018 42.3326C2.12047 42.3448 2.09358 42.363 2.07117 42.386C2.04814 42.4084 2.02995 42.4353 2.01772 42.465C2.00549 42.4947 1.99947 42.5266 2.00004 42.5588V43.0872C2.00004 43.8732 2.19312 44.5673 2.57927 45.1704C2.96543 45.7735 3.51063 46.241 4.21537 46.5728C4.92011 46.9046 5.73968 47.0707 6.67459 47.0707ZM17.3854 47.0707C18.3066 47.0707 19.1196 46.8914 19.8243 46.5321C20.5291 46.1729 21.0743 45.6618 21.4604 44.9977C21.8466 44.3336 22.0396 43.5684 22.0396 42.701V42.6401C22.0402 42.6079 22.0342 42.576 22.022 42.5463C22.0097 42.5166 21.9915 42.4897 21.9685 42.4673C21.9461 42.4443 21.9192 42.4261 21.8895 42.4139C21.8598 42.4016 21.8279 42.3956 21.7958 42.3962L19.4178 42.2946C19.2552 42.2946 19.1739 42.3692 19.1739 42.5181V42.7823C19.1739 43.3377 19.0114 43.7818 18.6862 44.1136C18.361 44.4454 17.9276 44.6115 17.3854 44.6115C16.8433 44.6115 16.4099 44.4454 16.0847 44.1136C15.7595 43.7818 15.5969 43.3377 15.5969 42.7823V36.8274C15.5969 36.272 15.7595 35.8249 16.0847 35.486C16.4099 35.1471 16.8433 34.9779 17.3854 34.9779C17.9276 34.9779 18.361 35.1471 18.6862 35.486C19.0114 35.8249 19.1739 36.272 19.1739 36.8274V37.0916C19.1739 37.2404 19.2552 37.3151 19.4178 37.3151L21.7958 37.2135C21.8288 37.2137 21.8615 37.2065 21.8913 37.1924C21.9212 37.1784 21.9476 37.1578 21.9685 37.1322C22.0143 37.0823 22.0396 37.017 22.0396 36.9493V36.8477C22.0396 35.9803 21.8466 35.2218 21.4604 34.5714C21.0743 33.921 20.5291 33.4165 19.8243 33.0572C19.1196 32.698 18.3066 32.5186 17.3854 32.5186C16.4642 32.5186 15.6513 32.7016 14.9465 33.0674C14.2418 33.4332 13.6966 33.9515 13.3104 34.6222C12.9243 35.2929 12.7312 36.0688 12.7312 36.9493V42.5994C12.7312 43.4937 12.9243 44.2797 13.3104 44.957C13.69 45.6282 14.2591 46.1726 14.9465 46.522C15.6513 46.8878 16.4642 47.0707 17.3854 47.0707ZM26.4906 46.9081C26.5228 46.9087 26.5547 46.9027 26.5844 46.8905C26.6141 46.8782 26.641 46.86 26.6634 46.837C26.6864 46.8146 26.7046 46.7877 26.7168 46.758C26.7291 46.7283 26.7351 46.6964 26.7345 46.6642V32.9251C26.7351 32.893 26.7291 32.8611 26.7168 32.8314C26.7046 32.8017 26.6864 32.7748 26.6634 32.7524C26.641 32.7293 26.6141 32.7111 26.5844 32.6989C26.5547 32.6867 26.5228 32.6807 26.4906 32.6812H24.1127C24.0806 32.6807 24.0487 32.6867 24.019 32.6989C23.9893 32.7111 23.9624 32.7293 23.94 32.7524C23.9169 32.7748 23.8987 32.8017 23.8865 32.8314C23.8743 32.8611 23.8683 32.893 23.8688 32.9251V46.6642C23.8688 46.7318 23.8927 46.7897 23.94 46.837C23.9872 46.8843 24.0451 46.9081 24.1127 46.9081H26.4906ZM33.1366 47.0707C34.5187 47.0707 35.6263 46.7085 36.4596 45.9834C37.2929 45.2583 37.7096 44.2797 37.7096 43.0465C37.7096 42.3555 37.5607 41.7661 37.2624 41.2783C36.9778 40.8052 36.6012 40.394 36.1548 40.0691C35.7142 39.7505 35.1015 39.3745 34.3154 38.9411L33.8886 38.6972C33.1976 38.3583 32.6829 38.0839 32.344 37.8741C32.0051 37.6642 31.7546 37.4437 31.592 37.2135C31.4294 36.9833 31.3481 36.712 31.3481 36.4006C31.3481 35.9534 31.4868 35.6044 31.7648 35.3539C32.0427 35.1034 32.4253 34.9779 32.9131 34.9779C33.4959 34.9779 33.9562 35.1405 34.2951 35.4656C34.634 35.7908 34.8032 36.1973 34.8032 36.6851V37.0509C34.8032 37.1185 34.8271 37.1764 34.8743 37.2237C34.9216 37.2709 34.9795 37.2948 35.0471 37.2948H37.3844C37.4165 37.2954 37.4484 37.2894 37.4781 37.2771C37.5078 37.2649 37.5347 37.2467 37.5571 37.2237C37.5802 37.2013 37.5984 37.1744 37.6106 37.1447C37.6228 37.115 37.6288 37.083 37.6283 37.0509V36.6444C37.6283 35.8315 37.4316 35.1135 37.0389 34.4901C36.6461 33.8666 36.0974 33.3824 35.3926 33.0369C34.6879 32.6914 33.882 32.5186 32.974 32.5186C32.1067 32.5186 31.3344 32.6777 30.6571 32.9963C29.9798 33.3148 29.4544 33.7686 29.082 34.358C28.7095 34.9474 28.5231 35.6348 28.5231 36.4209C28.5231 37.2069 28.706 37.8776 29.0718 38.433C29.4376 38.9883 29.8782 39.4426 30.3929 39.7947C30.9076 40.1468 31.5717 40.5264 32.3846 40.9328C33.0487 41.2717 33.5396 41.539 33.8581 41.7356C34.1767 41.9323 34.4237 42.1421 34.6 42.3657C34.7763 42.5893 34.8642 42.857 34.8642 43.1685C34.8642 43.5887 34.7255 43.9342 34.4475 44.205C34.1696 44.4758 33.7667 44.6115 33.2383 44.6115C32.6423 44.6115 32.1677 44.4525 31.8156 44.1339C31.4634 43.8153 31.2871 43.419 31.2871 42.9449V42.5588C31.2877 42.5266 31.2817 42.4947 31.2695 42.465C31.2572 42.4353 31.239 42.4084 31.216 42.386C31.1936 42.363 31.1667 42.3448 31.137 42.3326C31.1073 42.3203 31.0754 42.3143 31.0432 42.3149H28.706C28.6738 42.3143 28.6419 42.3203 28.6122 42.3326C28.5825 42.3448 28.5556 42.363 28.5332 42.386C28.5102 42.4084 28.492 42.4353 28.4798 42.465C28.4675 42.4947 28.4615 42.5266 28.4621 42.5588V43.0872C28.4621 43.8732 28.6552 44.5673 29.0413 45.1704C29.4275 45.7735 29.9727 46.241 30.6774 46.5728C31.3822 46.9046 32.2017 47.0707 33.1366 47.0707ZM43.7052 47.0707C45.0872 47.0707 46.1949 46.7085 47.0282 45.9834C47.8615 45.2583 48.2781 44.2797 48.2781 43.0465C48.2781 42.3555 48.1292 41.7661 47.831 41.2783C47.5464 40.8052 47.1697 40.394 46.7233 40.0691C46.2828 39.7505 45.67 39.3745 44.884 38.9411L44.4572 38.6972C43.7662 38.3583 43.2515 38.0839 42.9125 37.8741C42.5736 37.6642 42.3232 37.4437 42.1606 37.2135C41.998 36.9833 41.9167 36.712 41.9167 36.4006C41.9167 35.9534 42.0554 35.6044 42.3333 35.3539C42.6112 35.1034 42.9938 34.9779 43.4816 34.9779C44.0644 34.9779 44.5248 35.1405 44.8637 35.4656C45.2026 35.7908 45.3718 36.1973 45.3718 36.6851V37.0509C45.3718 37.1185 45.3957 37.1764 45.4429 37.2237C45.4902 37.2709 45.5481 37.2948 45.6157 37.2948H47.9529C47.9851 37.2954 48.017 37.2894 48.0467 37.2771C48.0764 37.2649 48.1033 37.2467 48.1257 37.2237C48.1487 37.2013 48.1669 37.1744 48.1791 37.1447C48.1914 37.115 48.1974 37.083 48.1968 37.0509V36.6444C48.1968 35.8315 48.0002 35.1135 47.6074 34.4901C47.2147 33.8666 46.6659 33.3824 45.9612 33.0369C45.2564 32.6914 44.4506 32.5186 43.5426 32.5186C42.6753 32.5186 41.9029 32.6777 41.2256 32.9963C40.5483 33.3148 40.023 33.7686 39.6505 34.358C39.2781 34.9474 39.0916 35.6348 39.0916 36.4209C39.0916 37.2069 39.2745 37.8776 39.6404 38.433C40.0062 38.9883 40.4467 39.4426 40.9614 39.7947C41.4761 40.1468 42.1402 40.5264 42.9532 40.9328C43.6173 41.2717 44.1081 41.539 44.4267 41.7356C44.7453 41.9323 44.9922 42.1421 45.1685 42.3657C45.3448 42.5893 45.4327 42.857 45.4327 43.1685C45.4327 43.5887 45.294 43.9342 45.0161 44.205C44.7382 44.4758 44.3352 44.6115 43.8068 44.6115C43.2108 44.6115 42.7362 44.4525 42.3841 44.1339C42.032 43.8153 41.8557 43.419 41.8557 42.9449V42.5588C41.8563 42.5266 41.8502 42.4947 41.838 42.465C41.8258 42.4353 41.8076 42.4084 41.7846 42.386C41.7621 42.363 41.7353 42.3448 41.7055 42.3326C41.6758 42.3203 41.6439 42.3143 41.6118 42.3149H39.2745C39.2424 42.3143 39.2105 42.3203 39.1808 42.3326C39.1511 42.3448 39.1242 42.363 39.1018 42.386C39.0787 42.4084 39.0606 42.4353 39.0483 42.465C39.0361 42.4947 39.0301 42.5266 39.0306 42.5588V43.0872C39.0306 43.8732 39.2237 44.5673 39.6099 45.1704C39.996 45.7735 40.5412 46.241 41.246 46.5728C41.9507 46.9046 42.7703 47.0707 43.7052 47.0707ZM54.477 47.0911C55.4119 47.0911 56.2386 46.9015 56.9565 46.522C57.6745 46.1424 58.2304 45.6074 58.6231 44.9164C59.0159 44.2253 59.2125 43.419 59.2125 42.4978V37.0916C59.2125 36.1836 59.0159 35.3843 58.6231 34.6933C58.2304 34.0023 57.6745 33.4673 56.9565 33.0877C56.2386 32.7082 55.4119 32.5186 54.477 32.5186C53.5421 32.5186 52.719 32.7082 52.0076 33.0877C51.3121 33.4518 50.7368 34.0094 50.3512 34.6933C49.9584 35.3843 49.7618 36.1836 49.7618 37.0916V42.4978C49.7618 43.419 49.9584 44.2253 50.3512 44.9164C50.7368 45.6003 51.3121 46.1579 52.0076 46.522C52.719 46.9015 53.5421 47.0911 54.477 47.0911ZM54.477 44.6318C53.9216 44.6318 53.4745 44.4454 53.1356 44.0729C52.7967 43.7005 52.6275 43.2157 52.6275 42.6197V37.0103C52.6275 36.4006 52.7967 35.9092 53.1356 35.5368C53.4745 35.1643 53.9216 34.9779 54.477 34.9779C55.0461 34.9779 55.4998 35.1643 55.8387 35.5368C56.1776 35.9092 56.3468 36.4006 56.3468 37.0103V42.6197C56.3468 43.2157 56.1776 43.7005 55.8387 44.0729C55.4998 44.4454 55.0461 44.6318 54.477 44.6318ZM63.7448 46.9081C63.7769 46.9087 63.8088 46.9027 63.8385 46.8905C63.8683 46.8782 63.8951 46.86 63.9176 46.837C63.9406 46.8146 63.9588 46.7877 63.971 46.758C63.9832 46.7283 63.9893 46.6964 63.9887 46.6642V41.1158C63.9887 41.0482 64.0227 41.0141 64.0903 41.0141H65.3707C65.4114 41.0141 65.4454 41.0411 65.4724 41.0954L67.5251 46.7049C67.5657 46.8406 67.6608 46.9081 67.8096 46.9081H70.2892C70.438 46.9081 70.5127 46.8472 70.5127 46.7252C70.5139 46.6902 70.507 46.6554 70.4924 46.6236L68.1755 40.7906C68.1485 40.723 68.1689 40.6752 68.2364 40.6483C68.9275 40.3368 69.4625 39.8623 69.842 39.2256C70.2216 38.589 70.4111 37.837 70.4111 36.9696C70.4111 36.1297 70.2419 35.3843 69.903 34.734C69.5796 34.0996 69.0781 33.5734 68.46 33.2198C67.8366 32.8606 67.1252 32.6812 66.326 32.6812H61.3669C61.3348 32.6807 61.3028 32.6867 61.2731 32.6989C61.2434 32.7111 61.2165 32.7293 61.1941 32.7524C61.1711 32.7748 61.1529 32.8017 61.1407 32.8314C61.1284 32.8611 61.1224 32.893 61.123 32.9251V46.6642C61.123 46.7318 61.1469 46.7897 61.1941 46.837C61.2414 46.8843 61.2993 46.9081 61.3669 46.9081H63.7448ZM65.8585 38.8191H64.0903C64.0227 38.8191 63.9887 38.7851 63.9887 38.7175V35.2421C63.9887 35.1745 64.0227 35.1405 64.0903 35.1405H65.8585C66.36 35.1405 66.7665 35.3066 67.078 35.6384C67.3894 35.9702 67.5454 36.4209 67.5454 36.99C67.5454 37.5453 67.3894 37.9894 67.078 38.3212C66.7665 38.653 66.36 38.8191 65.8585 38.8191ZM76.4271 47.0707C77.8091 47.0707 78.9168 46.7085 79.7501 45.9834C80.5834 45.2583 81 44.2797 81 43.0465C81 42.3555 80.8511 41.7661 80.5529 41.2783C80.2682 40.8052 79.8916 40.394 79.4452 40.0691C79.0047 39.7505 78.3919 39.3745 77.6059 38.9411L77.1791 38.6972C76.488 38.3583 75.9733 38.0839 75.6344 37.8741C75.2955 37.6642 75.045 37.4437 74.8824 37.2135C74.7198 36.9833 74.6385 36.712 74.6385 36.4006C74.6385 35.9534 74.7773 35.6044 75.0552 35.3539C75.3331 35.1034 75.7157 34.9779 76.2035 34.9779C76.7863 34.9779 77.2466 35.1405 77.5855 35.4656C77.9245 35.7908 78.0937 36.1973 78.0937 36.6851V37.0509C78.0937 37.1185 78.1175 37.1764 78.1648 37.2237C78.212 37.2709 78.27 37.2948 78.3375 37.2948H80.6748C80.7069 37.2954 80.7388 37.2894 80.7686 37.2771C80.7983 37.2649 80.8252 37.2467 80.8476 37.2237C80.8706 37.2013 80.8888 37.1744 80.901 37.1447C80.9133 37.115 80.9193 37.083 80.9187 37.0509V36.6444C80.9187 35.8315 80.7221 35.1135 80.3293 34.4901C79.9365 33.8666 79.3878 33.3824 78.6831 33.0369C77.9783 32.6914 77.1725 32.5186 76.2645 32.5186C75.3971 32.5186 74.6248 32.6777 73.9475 32.9963C73.2702 33.3148 72.7448 33.7686 72.3724 34.358C72 34.9474 71.8135 35.6348 71.8135 36.4209C71.8135 37.2069 71.9964 37.8776 72.3622 38.433C72.7281 38.9883 73.1686 39.4426 73.6833 39.7947C74.198 40.1468 74.8621 40.5264 75.6751 40.9328C76.3392 41.2717 76.83 41.539 77.1486 41.7356C77.4672 41.9323 77.7141 42.1421 77.8904 42.3657C78.0667 42.5893 78.1546 42.857 78.1546 43.1685C78.1546 43.5887 78.0159 43.9342 77.738 44.205C77.46 44.4758 77.0571 44.6115 76.5287 44.6115C75.9327 44.6115 75.4581 44.4525 75.106 44.1339C74.7539 43.8153 74.5776 43.419 74.5776 42.9449V42.5588C74.5781 42.5266 74.5721 42.4947 74.5599 42.465C74.5477 42.4353 74.5295 42.4084 74.5064 42.386C74.484 42.363 74.4571 42.3448 74.4274 42.3326C74.3977 42.3203 74.3658 42.3143 74.3337 42.3149H71.9964C71.9643 42.3143 71.9324 42.3203 71.9027 42.3326C71.873 42.3448 71.8461 42.363 71.8237 42.386C71.8006 42.4084 71.7824 42.4353 71.7702 42.465C71.758 42.4947 71.7519 42.5266 71.7525 42.5588V43.0872C71.7525 43.8732 71.9456 44.5673 72.3318 45.1704C72.7179 45.7735 73.2631 46.241 73.9678 46.5728C74.6726 46.9046 75.4922 47.0707 76.4271 47.0707Z" fill="white"/>
<defs>
<filter id="filter0_d_1_179" x="0.475689" y="0" width="82.0486" height="50.1397" filterUnits="userSpaceOnUse" color-interpolation-filters="sRGB">
<feFlood flood-opacity="0" result="BackgroundImageFix"/>
<feColorMatrix in="SourceAlpha" type="matrix" values="0 0 0 0 0 0 0 0 0 0 0 0 0 0 0 0 0 0 127 0" result="hardAlpha"/>
<feOffset dy="1.52431"/>
<feGaussianBlur stdDeviation="0.762155"/>
<feColorMatrix type="matrix" values="0 0 0 0 0 0 0 0 0 0 0 0 0 0 0 0 0 0 0.196706 0"/>
<feBlend mode="normal" in2="BackgroundImageFix" result="effect1_dropShadow_1_179"/>
<feBlend mode="normal" in="SourceGraphic" in2="effect1_dropShadow_1_179" result="shape"/>
</filter>
</defs>
</svg>
