<svg width="314" height="280" viewBox="0 0 314 280" fill="none" xmlns="http://www.w3.org/2000/svg">
<path d="M55.0524 113.471C85.4569 113.471 110.105 88.0694 110.105 56.7353C110.105 25.4013 85.4569 0 55.0524 0C24.6478 0 0 25.4013 0 56.7353C0 88.0694 24.6478 113.471 55.0524 113.471Z" fill="#B1B4C5"/>
<path d="M55.0524 108.44C85.4569 108.44 110.105 84.1652 110.105 54.2202C110.105 24.2752 85.4569 0 55.0524 0C24.6478 0 0 24.2752 0 54.2202C0 84.1652 24.6478 108.44 55.0524 108.44Z" fill="url(#paint0_linear_3_117)"/>
<path d="M55.0523 97.8199C78.3932 97.8199 97.3147 78.8001 97.3147 55.3381C97.3147 31.876 78.3932 12.8562 55.0523 12.8562C31.7113 12.8562 12.7898 31.876 12.7898 55.3381C12.7898 78.8001 31.7113 97.8199 55.0523 97.8199Z" fill="#E1E4ED"/>
<path d="M71.4731 44.3387C71.1759 44.221 70.8566 44.1694 70.5374 44.1876C70.1058 44.2187 69.756 44.3957 69.5489 44.6855C68.3307 46.4098 67.3329 49.664 66.5277 52.2795C66.1582 53.4895 65.6624 55.1083 65.3032 55.8763C64.9286 53.7234 65.3519 45.8395 65.5165 42.8038L65.5185 42.7551C65.6324 40.6457 65.6479 40.2752 65.622 40.1127C65.4419 38.9555 64.9824 38.1958 64.2568 37.8563C63.524 37.5117 62.5708 37.6638 61.545 38.2879C61.0306 38.6016 60.8878 39.6801 60.4469 44.5675L60.4448 44.5882C60.2016 47.2741 59.6416 53.4564 58.9533 54.4862C58.177 53.0454 57.1068 44.8604 56.6452 41.3185C56.3223 38.8375 56.1339 37.4123 56.0076 36.9817C55.7416 36.0813 54.6176 35.3143 53.5049 35.2708C52.5786 35.2253 51.8188 35.7004 51.4555 36.5274C50.7776 37.2891 51.0177 39.8177 51.7681 45.8054C52.1242 48.6559 52.8611 54.5421 52.3974 55.2035C51.4731 55.101 49.8854 51.4142 47.6787 44.2404C47.0598 42.2304 46.8683 41.627 46.6778 41.363C46.3031 40.4408 45.029 39.7297 43.8874 39.8105C43.7911 39.8171 43.6954 39.8296 43.6007 39.8477C43.0024 39.9678 41.6383 40.5236 41.9291 43.0874C42.7354 46.6427 43.61 49.2531 44.4598 51.7868L44.4763 51.8386C44.9845 53.3549 45.4648 54.7884 45.9119 56.3803C46.9635 60.1375 46.5547 62.4684 46.5495 62.4943C46.5143 62.7344 46.4408 62.8814 46.3311 62.9321C46.2842 62.9524 46.2341 62.964 46.1831 62.9662C45.8498 62.99 45.3499 62.7665 45.0911 62.6216C44.5032 61.4851 41.572 56.0698 38.9151 55.3194L38.8209 55.2925L38.7246 55.3008C37.7496 55.3939 37.0334 55.7665 36.5956 56.4062C35.9021 57.4185 36.1888 58.7081 36.2592 58.9669L36.2985 59.06C36.3192 59.0983 38.4504 63.019 38.7795 64.8428C39.0641 66.4067 40.5349 68.101 41.7169 69.4631L41.7656 69.519C42.1516 69.9641 42.4849 70.3491 42.7468 70.7052C46.1789 74.3195 51.6046 77.3584 51.6491 77.3832C52.326 77.8873 52.7027 78.3748 52.7421 78.794C52.7609 78.9524 52.7175 79.112 52.621 79.239L52.503 79.3632L53.2534 80.0991L67.57 79.0848L68.1806 76.2592C70.0675 68.2842 69.6731 61.4841 69.6669 61.4385C69.6742 61.188 70.2031 58.7681 70.6295 56.814L70.6409 56.7643C71.4896 52.8695 72.5433 48.0245 72.7462 46.1811C72.8341 45.3934 72.3342 44.67 71.4731 44.3398V44.3387Z" fill="#8A90AC"/>
<path d="M258.433 113.471C289.122 113.471 314 88.0694 314 56.7353C314 25.4013 289.122 0 258.433 0C227.745 0 202.866 25.4013 202.866 56.7353C202.866 88.0694 227.745 113.471 258.433 113.471Z" fill="#B1B4C5"/>
<path d="M258.433 108.44C289.122 108.44 314 84.1652 314 54.2202C314 24.2752 289.122 0 258.433 0C227.745 0 202.866 24.2752 202.866 54.2202C202.866 84.1652 227.745 108.44 258.433 108.44Z" fill="url(#paint1_linear_3_117)"/>
<path d="M258.434 97.8199C281.993 97.8199 301.092 78.8001 301.092 55.3381C301.092 31.876 281.993 12.8562 258.434 12.8562C234.875 12.8562 215.776 31.876 215.776 55.3381C215.776 78.8001 234.875 97.8199 258.434 97.8199Z" fill="#E1E4ED"/>
<path d="M247.298 54.9738L251.905 48.5214C249.99 48.2037 246.473 48.1333 243.593 51.0024C239.051 55.5255 237.212 65.2952 236.829 67.6592L248.369 79.1532C250.448 78.9773 259.647 77.7528 268.511 68.9261C268.604 68.7356 270.764 67.1458 268.999 65.3883C268.156 64.5499 266.761 64.5644 265.901 65.4225C265.801 65.5262 265.681 65.6089 265.548 65.6659C265.416 65.7229 265.274 65.753 265.129 65.7544C264.985 65.7559 264.842 65.7286 264.709 65.6743C264.575 65.62 264.454 65.5397 264.351 65.438C264.249 65.3367 264.169 65.2159 264.114 65.0829C264.06 64.9499 264.032 64.8074 264.034 64.6636C264.035 64.5199 264.065 64.3779 264.123 64.246C264.18 64.1141 264.263 63.9951 264.367 63.8958L267.499 60.7762C269.091 59.1905 267.591 56.516 265.369 57.1588L262.805 59.3448C262.585 59.5351 262.299 59.6306 262.008 59.6107C261.718 59.5907 261.448 59.4568 261.256 59.2382C260.858 58.7796 260.943 58.0851 261.395 57.6939C270.353 49.867 269.044 50.8109 274.807 45.4308C276.96 43.6454 274.253 40.4875 272.131 42.2947L258.19 54.7813C257.99 54.9509 257.736 55.0428 257.474 55.0399C257.212 55.0371 256.96 54.9397 256.764 54.7658C256.303 54.3694 256.293 53.7991 256.594 53.3478L266.318 38.2932C267.739 36.3763 264.941 34.2463 263.445 36.1797L249.067 56.2045C248.985 56.3223 248.88 56.4226 248.759 56.4997C248.638 56.5768 248.503 56.6291 248.361 56.6537C248.22 56.6782 248.075 56.6745 247.935 56.6427C247.795 56.6109 247.663 56.5516 247.546 56.4684C247.429 56.388 247.331 56.285 247.255 56.1657C247.179 56.0463 247.128 55.913 247.105 55.7736C247.082 55.6343 247.087 55.4917 247.12 55.3543C247.153 55.2169 247.213 55.0875 247.297 54.9738H247.298Z" fill="#8A90AC"/>
<path d="M157 279.076C187.689 279.076 212.567 253.675 212.567 222.341C212.567 191.006 187.689 165.605 157 165.605C126.311 165.605 101.433 191.006 101.433 222.341C101.433 253.675 126.311 279.076 157 279.076Z" fill="#B1B4C5"/>
<path d="M157 274.046C187.689 274.046 212.567 249.77 212.567 219.825C212.567 189.88 187.689 165.605 157 165.605C126.311 165.605 101.433 189.88 101.433 219.825C101.433 249.77 126.311 274.046 157 274.046Z" fill="url(#paint2_linear_3_117)"/>
<path d="M157.001 263.425C180.56 263.425 199.659 244.405 199.659 220.943C199.659 197.481 180.56 178.461 157.001 178.461C133.442 178.461 114.343 197.481 114.343 220.943C114.343 244.405 133.442 263.425 157.001 263.425Z" fill="#E1E4ED"/>
<path d="M173.525 214.843C173.033 208.636 166.065 209.269 166.065 209.269C163.123 204.084 158.529 207.84 158.529 207.84C154.999 202.757 150.572 207.467 150.572 207.467C142.941 206.643 143.237 212.885 143.237 212.885C143.058 214.869 144.313 221.006 144.313 221.006C143.181 217.469 140.725 220.405 140.725 220.405C137.706 225.065 139.979 227.616 139.979 227.616C144.064 232.404 152.769 238.153 152.769 238.153C155.921 239.959 154.587 241.568 154.587 241.568L173.652 238.418L174.091 234.801C176.989 226.033 173.525 214.842 173.525 214.842V214.843Z" fill="#8A90AC"/>
<path d="M145.311 29.1085C145.311 29.9318 145.043 30.5602 144.505 30.9935C143.977 31.4182 143.292 31.6305 142.451 31.6305H139.539C139.496 31.6305 139.457 31.6175 139.422 31.5915C139.396 31.5568 139.383 31.5178 139.383 31.4745V22.6865C139.383 22.6432 139.396 22.6085 139.422 22.5825C139.457 22.5478 139.496 22.5305 139.539 22.5305H142.256C143.184 22.5305 143.903 22.7385 144.414 23.1545C144.926 23.5618 145.181 24.1858 145.181 25.0265C145.181 25.8845 144.848 26.5042 144.18 26.8855C144.137 26.9115 144.133 26.9375 144.167 26.9635C144.93 27.3968 145.311 28.1118 145.311 29.1085ZM141.281 24.1035C141.238 24.1035 141.216 24.1252 141.216 24.1685V26.2095C141.216 26.2528 141.238 26.2745 141.281 26.2745H142.269C142.616 26.2745 142.889 26.1792 143.088 25.9885C143.288 25.7978 143.387 25.5335 143.387 25.1955C143.387 24.8488 143.288 24.5802 143.088 24.3895C142.898 24.1988 142.625 24.1035 142.269 24.1035H141.281ZM142.373 30.0445C142.72 30.0445 142.989 29.9448 143.179 29.7455C143.379 29.5375 143.478 29.2472 143.478 28.8745C143.478 28.5018 143.379 28.2115 143.179 28.0035C142.989 27.7868 142.72 27.6785 142.373 27.6785H141.281C141.238 27.6785 141.216 27.7002 141.216 27.7435V29.9795C141.216 30.0228 141.238 30.0445 141.281 30.0445H142.373ZM151.993 23.9475C151.993 23.9908 151.975 24.0298 151.941 24.0645C151.915 24.0905 151.88 24.1035 151.837 24.1035H148.353C148.309 24.1035 148.288 24.1252 148.288 24.1685V26.1965C148.288 26.2398 148.309 26.2615 148.353 26.2615H150.524C150.567 26.2615 150.602 26.2788 150.628 26.3135C150.662 26.3395 150.68 26.3742 150.68 26.4175V27.6785C150.68 27.7218 150.662 27.7608 150.628 27.7955C150.602 27.8215 150.567 27.8345 150.524 27.8345H148.353C148.309 27.8345 148.288 27.8562 148.288 27.8995V29.9925C148.288 30.0358 148.309 30.0575 148.353 30.0575H151.837C151.88 30.0575 151.915 30.0748 151.941 30.1095C151.975 30.1355 151.993 30.1702 151.993 30.2135V31.4745C151.993 31.5178 151.975 31.5568 151.941 31.5915C151.915 31.6175 151.88 31.6305 151.837 31.6305H146.611C146.567 31.6305 146.528 31.6175 146.494 31.5915C146.468 31.5568 146.455 31.5178 146.455 31.4745V22.6865C146.455 22.6432 146.468 22.6085 146.494 22.5825C146.528 22.5478 146.567 22.5305 146.611 22.5305H151.837C151.88 22.5305 151.915 22.5478 151.941 22.5825C151.975 22.6085 151.993 22.6432 151.993 22.6865V23.9475ZM158.006 31.6305C157.911 31.6305 157.85 31.5872 157.824 31.5005L157.525 30.2265C157.516 30.1918 157.495 30.1745 157.46 30.1745H155.029C154.994 30.1745 154.973 30.1918 154.964 30.2265L154.665 31.5005C154.639 31.5872 154.583 31.6305 154.496 31.6305H152.923C152.81 31.6305 152.767 31.5742 152.793 31.4615L155.133 22.6605C155.159 22.5738 155.22 22.5305 155.315 22.5305H157.2C157.295 22.5305 157.356 22.5738 157.382 22.6605L159.722 31.4615L159.735 31.5135C159.735 31.5915 159.687 31.6305 159.592 31.6305H158.006ZM155.315 28.6795C155.306 28.7055 155.311 28.7272 155.328 28.7445C155.345 28.7532 155.363 28.7575 155.38 28.7575H157.096C157.113 28.7575 157.131 28.7532 157.148 28.7445C157.165 28.7272 157.17 28.7055 157.161 28.6795L156.264 24.9095C156.255 24.8748 156.242 24.8575 156.225 24.8575C156.208 24.8575 156.195 24.8748 156.186 24.9095L155.315 28.6795ZM165.402 22.5305C165.445 22.5305 165.48 22.5478 165.506 22.5825C165.54 22.6085 165.558 22.6432 165.558 22.6865V23.9605C165.558 24.0038 165.54 24.0428 165.506 24.0775C165.48 24.1035 165.445 24.1165 165.402 24.1165H163.426C163.382 24.1165 163.361 24.1382 163.361 24.1815V31.4745C163.361 31.5178 163.343 31.5568 163.309 31.5915C163.283 31.6175 163.248 31.6305 163.205 31.6305H161.684C161.64 31.6305 161.601 31.6175 161.567 31.5915C161.541 31.5568 161.528 31.5178 161.528 31.4745V24.1815C161.528 24.1382 161.506 24.1165 161.463 24.1165H159.552C159.508 24.1165 159.469 24.1035 159.435 24.0775C159.409 24.0428 159.396 24.0038 159.396 23.9605V22.6865C159.396 22.6432 159.409 22.6085 159.435 22.5825C159.469 22.5478 159.508 22.5305 159.552 22.5305H165.402ZM169.281 31.7345C168.683 31.7345 168.159 31.6305 167.708 31.4225C167.258 31.2058 166.907 30.9068 166.655 30.5255C166.413 30.1355 166.291 29.6892 166.291 29.1865V28.8485C166.291 28.8052 166.304 28.7705 166.33 28.7445C166.365 28.7098 166.404 28.6925 166.447 28.6925H167.942C167.986 28.6925 168.02 28.7098 168.046 28.7445C168.081 28.7705 168.098 28.8052 168.098 28.8485V29.0955C168.098 29.3988 168.211 29.6545 168.436 29.8625C168.662 30.0618 168.965 30.1615 169.346 30.1615C169.684 30.1615 169.94 30.0748 170.113 29.9015C170.295 29.7282 170.386 29.5072 170.386 29.2385C170.386 29.0392 170.33 28.8702 170.217 28.7315C170.105 28.5842 169.944 28.4498 169.736 28.3285C169.537 28.1985 169.225 28.0252 168.8 27.8085C168.28 27.5485 167.856 27.3058 167.526 27.0805C167.197 26.8552 166.915 26.5648 166.681 26.2095C166.447 25.8542 166.33 25.4252 166.33 24.9225C166.33 24.4198 166.447 23.9822 166.681 23.6095C166.924 23.2282 167.262 22.9378 167.695 22.7385C168.129 22.5305 168.623 22.4265 169.177 22.4265C169.758 22.4265 170.274 22.5392 170.724 22.7645C171.175 22.9812 171.526 23.2888 171.777 23.6875C172.029 24.0862 172.154 24.5455 172.154 25.0655V25.3255C172.154 25.3688 172.137 25.4078 172.102 25.4425C172.076 25.4685 172.042 25.4815 171.998 25.4815H170.503C170.46 25.4815 170.421 25.4685 170.386 25.4425C170.36 25.4078 170.347 25.3688 170.347 25.3255V25.0915C170.347 24.7795 170.239 24.5195 170.022 24.3115C169.806 24.1035 169.511 23.9995 169.138 23.9995C168.826 23.9995 168.579 24.0818 168.397 24.2465C168.224 24.4025 168.137 24.6235 168.137 24.9095C168.137 25.1088 168.189 25.2822 168.293 25.4295C168.397 25.5768 168.558 25.7198 168.774 25.8585C168.991 25.9885 169.32 26.1618 169.762 26.3785L170.035 26.5345C170.538 26.8118 170.928 27.0545 171.205 27.2625C171.491 27.4618 171.73 27.7175 171.92 28.0295C172.111 28.3415 172.206 28.7185 172.206 29.1605C172.206 29.9492 171.938 30.5775 171.4 31.0455C170.872 31.5048 170.165 31.7345 169.281 31.7345Z" fill="#B1B4C5"/>
<path d="M48.0184 149.172C48.0184 149.996 47.7497 150.624 47.2124 151.057C46.6837 151.482 45.999 151.694 45.1584 151.694H42.2464C42.203 151.694 42.164 151.681 42.1294 151.655C42.1034 151.621 42.0904 151.582 42.0904 151.538V142.75C42.0904 142.707 42.1034 142.672 42.1294 142.646C42.164 142.612 42.203 142.594 42.2464 142.594H44.9634C45.8907 142.594 46.61 142.802 47.1214 143.218C47.6327 143.626 47.8884 144.25 47.8884 145.09C47.8884 145.948 47.5547 146.568 46.8874 146.949C46.844 146.975 46.8397 147.001 46.8744 147.027C47.637 147.461 48.0184 148.176 48.0184 149.172ZM43.9884 144.167C43.945 144.167 43.9234 144.189 43.9234 144.232V146.273C43.9234 146.317 43.945 146.338 43.9884 146.338H44.9764C45.323 146.338 45.596 146.243 45.7954 146.052C45.9947 145.862 46.0944 145.597 46.0944 145.259C46.0944 144.913 45.9947 144.644 45.7954 144.453C45.6047 144.263 45.3317 144.167 44.9764 144.167H43.9884ZM45.0804 150.108C45.427 150.108 45.6957 150.009 45.8864 149.809C46.0857 149.601 46.1854 149.311 46.1854 148.938C46.1854 148.566 46.0857 148.275 45.8864 148.067C45.6957 147.851 45.427 147.742 45.0804 147.742H43.9884C43.945 147.742 43.9234 147.764 43.9234 147.807V150.043C43.9234 150.087 43.945 150.108 43.9884 150.108H45.0804ZM54.6997 144.011C54.6997 144.055 54.6823 144.094 54.6477 144.128C54.6217 144.154 54.587 144.167 54.5437 144.167H51.0597C51.0163 144.167 50.9947 144.189 50.9947 144.232V146.26C50.9947 146.304 51.0163 146.325 51.0597 146.325H53.2307C53.274 146.325 53.3087 146.343 53.3347 146.377C53.3693 146.403 53.3867 146.438 53.3867 146.481V147.742C53.3867 147.786 53.3693 147.825 53.3347 147.859C53.3087 147.885 53.274 147.898 53.2307 147.898H51.0597C51.0163 147.898 50.9947 147.92 50.9947 147.963V150.056C50.9947 150.1 51.0163 150.121 51.0597 150.121H54.5437C54.587 150.121 54.6217 150.139 54.6477 150.173C54.6823 150.199 54.6997 150.234 54.6997 150.277V151.538C54.6997 151.582 54.6823 151.621 54.6477 151.655C54.6217 151.681 54.587 151.694 54.5437 151.694H49.3177C49.2743 151.694 49.2353 151.681 49.2007 151.655C49.1747 151.621 49.1617 151.582 49.1617 151.538V142.75C49.1617 142.707 49.1747 142.672 49.2007 142.646C49.2353 142.612 49.2743 142.594 49.3177 142.594H54.5437C54.587 142.594 54.6217 142.612 54.6477 142.646C54.6823 142.672 54.6997 142.707 54.6997 142.75V144.011ZM60.7129 151.694C60.6175 151.694 60.5569 151.651 60.5309 151.564L60.2319 150.29C60.2232 150.256 60.2015 150.238 60.1669 150.238H57.7359C57.7012 150.238 57.6795 150.256 57.6709 150.29L57.3719 151.564C57.3459 151.651 57.2895 151.694 57.2029 151.694H55.6299C55.5172 151.694 55.4739 151.638 55.4999 151.525L57.8399 142.724C57.8659 142.638 57.9265 142.594 58.0219 142.594H59.9069C60.0022 142.594 60.0629 142.638 60.0889 142.724L62.4289 151.525L62.4419 151.577C62.4419 151.655 62.3942 151.694 62.2989 151.694H60.7129ZM58.0219 148.743C58.0132 148.769 58.0175 148.791 58.0349 148.808C58.0522 148.817 58.0695 148.821 58.0869 148.821H59.8029C59.8202 148.821 59.8375 148.817 59.8549 148.808C59.8722 148.791 59.8765 148.769 59.8679 148.743L58.9709 144.973C58.9622 144.939 58.9492 144.921 58.9319 144.921C58.9145 144.921 58.9015 144.939 58.8929 144.973L58.0219 148.743ZM68.1086 142.594C68.152 142.594 68.1866 142.612 68.2126 142.646C68.2473 142.672 68.2646 142.707 68.2646 142.75V144.024C68.2646 144.068 68.2473 144.107 68.2126 144.141C68.1866 144.167 68.152 144.18 68.1086 144.18H66.1326C66.0893 144.18 66.0676 144.202 66.0676 144.245V151.538C66.0676 151.582 66.0503 151.621 66.0156 151.655C65.9896 151.681 65.955 151.694 65.9116 151.694H64.3906C64.3473 151.694 64.3083 151.681 64.2736 151.655C64.2476 151.621 64.2346 151.582 64.2346 151.538V144.245C64.2346 144.202 64.213 144.18 64.1696 144.18H62.2586C62.2153 144.18 62.1763 144.167 62.1416 144.141C62.1156 144.107 62.1026 144.068 62.1026 144.024V142.75C62.1026 142.707 62.1156 142.672 62.1416 142.646C62.1763 142.612 62.2153 142.594 62.2586 142.594H68.1086ZM71.9883 151.798C71.3903 151.798 70.866 151.694 70.4153 151.486C69.9647 151.27 69.6137 150.971 69.3623 150.589C69.1197 150.199 68.9983 149.753 68.9983 149.25V148.912C68.9983 148.869 69.0113 148.834 69.0373 148.808C69.072 148.774 69.111 148.756 69.1543 148.756H70.6493C70.6927 148.756 70.7273 148.774 70.7533 148.808C70.788 148.834 70.8053 148.869 70.8053 148.912V149.159C70.8053 149.463 70.918 149.718 71.1433 149.926C71.3687 150.126 71.672 150.225 72.0533 150.225C72.3913 150.225 72.647 150.139 72.8203 149.965C73.0023 149.792 73.0933 149.571 73.0933 149.302C73.0933 149.103 73.037 148.934 72.9243 148.795C72.8117 148.648 72.6513 148.514 72.4433 148.392C72.244 148.262 71.932 148.089 71.5073 147.872C70.9873 147.612 70.5627 147.37 70.2333 147.144C69.904 146.919 69.6223 146.629 69.3883 146.273C69.1543 145.918 69.0373 145.489 69.0373 144.986C69.0373 144.484 69.1543 144.046 69.3883 143.673C69.631 143.292 69.969 143.002 70.4023 142.802C70.8357 142.594 71.3297 142.49 71.8843 142.49C72.465 142.49 72.9807 142.603 73.4313 142.828C73.882 143.045 74.233 143.353 74.4843 143.751C74.7357 144.15 74.8613 144.609 74.8613 145.129V145.389C74.8613 145.433 74.844 145.472 74.8093 145.506C74.7833 145.532 74.7487 145.545 74.7053 145.545H73.2103C73.167 145.545 73.128 145.532 73.0933 145.506C73.0673 145.472 73.0543 145.433 73.0543 145.389V145.155C73.0543 144.843 72.946 144.583 72.7293 144.375C72.5127 144.167 72.218 144.063 71.8453 144.063C71.5333 144.063 71.2863 144.146 71.1043 144.31C70.931 144.466 70.8443 144.687 70.8443 144.973C70.8443 145.173 70.8963 145.346 71.0003 145.493C71.1043 145.641 71.2647 145.784 71.4813 145.922C71.698 146.052 72.0273 146.226 72.4693 146.442L72.7423 146.598C73.245 146.876 73.635 147.118 73.9123 147.326C74.1983 147.526 74.4367 147.781 74.6273 148.093C74.818 148.405 74.9133 148.782 74.9133 149.224C74.9133 150.013 74.6447 150.641 74.1073 151.109C73.5787 151.569 72.8723 151.798 71.9883 151.798Z" fill="#B1B4C5"/>
<path d="M249.85 149.172C249.85 149.996 249.581 150.624 249.044 151.057C248.515 151.482 247.83 151.694 246.99 151.694H244.078C244.034 151.694 243.995 151.681 243.961 151.655C243.935 151.621 243.922 151.582 243.922 151.538V142.75C243.922 142.707 243.935 142.672 243.961 142.646C243.995 142.612 244.034 142.594 244.078 142.594H246.795C247.722 142.594 248.441 142.802 248.953 143.218C249.464 143.626 249.72 144.25 249.72 145.09C249.72 145.948 249.386 146.568 248.719 146.949C248.675 146.975 248.671 147.001 248.706 147.027C249.468 147.461 249.85 148.176 249.85 149.172ZM245.82 144.167C245.776 144.167 245.755 144.189 245.755 144.232V146.273C245.755 146.317 245.776 146.338 245.82 146.338H246.808C247.154 146.338 247.427 146.243 247.627 146.052C247.826 145.862 247.926 145.597 247.926 145.259C247.926 144.913 247.826 144.644 247.627 144.453C247.436 144.263 247.163 144.167 246.808 144.167H245.82ZM246.912 150.108C247.258 150.108 247.527 150.009 247.718 149.809C247.917 149.601 248.017 149.311 248.017 148.938C248.017 148.566 247.917 148.275 247.718 148.067C247.527 147.851 247.258 147.742 246.912 147.742H245.82C245.776 147.742 245.755 147.764 245.755 147.807V150.043C245.755 150.087 245.776 150.108 245.82 150.108H246.912ZM256.531 144.011C256.531 144.055 256.514 144.094 256.479 144.128C256.453 144.154 256.418 144.167 256.375 144.167H252.891C252.848 144.167 252.826 144.189 252.826 144.232V146.26C252.826 146.304 252.848 146.325 252.891 146.325H255.062C255.105 146.325 255.14 146.343 255.166 146.377C255.201 146.403 255.218 146.438 255.218 146.481V147.742C255.218 147.786 255.201 147.825 255.166 147.859C255.14 147.885 255.105 147.898 255.062 147.898H252.891C252.848 147.898 252.826 147.92 252.826 147.963V150.056C252.826 150.1 252.848 150.121 252.891 150.121H256.375C256.418 150.121 256.453 150.139 256.479 150.173C256.514 150.199 256.531 150.234 256.531 150.277V151.538C256.531 151.582 256.514 151.621 256.479 151.655C256.453 151.681 256.418 151.694 256.375 151.694H251.149C251.106 151.694 251.067 151.681 251.032 151.655C251.006 151.621 250.993 151.582 250.993 151.538V142.75C250.993 142.707 251.006 142.672 251.032 142.646C251.067 142.612 251.106 142.594 251.149 142.594H256.375C256.418 142.594 256.453 142.612 256.479 142.646C256.514 142.672 256.531 142.707 256.531 142.75V144.011ZM262.544 151.694C262.449 151.694 262.388 151.651 262.362 151.564L262.063 150.29C262.054 150.256 262.033 150.238 261.998 150.238H259.567C259.532 150.238 259.511 150.256 259.502 150.29L259.203 151.564C259.177 151.651 259.121 151.694 259.034 151.694H257.461C257.348 151.694 257.305 151.638 257.331 151.525L259.671 142.724C259.697 142.638 259.758 142.594 259.853 142.594H261.738C261.833 142.594 261.894 142.638 261.92 142.724L264.26 151.525L264.273 151.577C264.273 151.655 264.225 151.694 264.13 151.694H262.544ZM259.853 148.743C259.844 148.769 259.849 148.791 259.866 148.808C259.883 148.817 259.901 148.821 259.918 148.821H261.634C261.651 148.821 261.669 148.817 261.686 148.808C261.703 148.791 261.708 148.769 261.699 148.743L260.802 144.973C260.793 144.939 260.78 144.921 260.763 144.921C260.746 144.921 260.733 144.939 260.724 144.973L259.853 148.743ZM269.94 142.594C269.983 142.594 270.018 142.612 270.044 142.646C270.079 142.672 270.096 142.707 270.096 142.75V144.024C270.096 144.068 270.079 144.107 270.044 144.141C270.018 144.167 269.983 144.18 269.94 144.18H267.964C267.921 144.18 267.899 144.202 267.899 144.245V151.538C267.899 151.582 267.882 151.621 267.847 151.655C267.821 151.681 267.786 151.694 267.743 151.694H266.222C266.179 151.694 266.14 151.681 266.105 151.655C266.079 151.621 266.066 151.582 266.066 151.538V144.245C266.066 144.202 266.044 144.18 266.001 144.18H264.09C264.047 144.18 264.008 144.167 263.973 144.141C263.947 144.107 263.934 144.068 263.934 144.024V142.75C263.934 142.707 263.947 142.672 263.973 142.646C264.008 142.612 264.047 142.594 264.09 142.594H269.94ZM273.82 151.798C273.222 151.798 272.697 151.694 272.247 151.486C271.796 151.27 271.445 150.971 271.194 150.589C270.951 150.199 270.83 149.753 270.83 149.25V148.912C270.83 148.869 270.843 148.834 270.869 148.808C270.903 148.774 270.942 148.756 270.986 148.756H272.481C272.524 148.756 272.559 148.774 272.585 148.808C272.619 148.834 272.637 148.869 272.637 148.912V149.159C272.637 149.463 272.749 149.718 272.975 149.926C273.2 150.126 273.503 150.225 273.885 150.225C274.223 150.225 274.478 150.139 274.652 149.965C274.834 149.792 274.925 149.571 274.925 149.302C274.925 149.103 274.868 148.934 274.756 148.795C274.643 148.648 274.483 148.514 274.275 148.392C274.075 148.262 273.763 148.089 273.339 147.872C272.819 147.612 272.394 147.37 272.065 147.144C271.735 146.919 271.454 146.629 271.22 146.273C270.986 145.918 270.869 145.489 270.869 144.986C270.869 144.484 270.986 144.046 271.22 143.673C271.462 143.292 271.8 143.002 272.234 142.802C272.667 142.594 273.161 142.49 273.716 142.49C274.296 142.49 274.812 142.603 275.263 142.828C275.713 143.045 276.064 143.353 276.316 143.751C276.567 144.15 276.693 144.609 276.693 145.129V145.389C276.693 145.433 276.675 145.472 276.641 145.506C276.615 145.532 276.58 145.545 276.537 145.545H275.042C274.998 145.545 274.959 145.532 274.925 145.506C274.899 145.472 274.886 145.433 274.886 145.389V145.155C274.886 144.843 274.777 144.583 274.561 144.375C274.344 144.167 274.049 144.063 273.677 144.063C273.365 144.063 273.118 144.146 272.936 144.31C272.762 144.466 272.676 144.687 272.676 144.973C272.676 145.173 272.728 145.346 272.832 145.493C272.936 145.641 273.096 145.784 273.313 145.922C273.529 146.052 273.859 146.226 274.301 146.442L274.574 146.598C275.076 146.876 275.466 147.118 275.744 147.326C276.03 147.526 276.268 147.781 276.459 148.093C276.649 148.405 276.745 148.782 276.745 149.224C276.745 150.013 276.476 150.641 275.939 151.109C275.41 151.569 274.704 151.798 273.82 151.798Z" fill="#B1B4C5"/>
<path d="M133.519 50.7167H181.131C182.274 50.7167 183.201 51.6435 183.201 52.7868C183.201 53.93 182.274 54.8568 181.131 54.8568H133.519C132.376 54.8568 131.449 53.93 131.449 52.7868C131.449 51.6435 132.376 50.7167 133.519 50.7167Z" fill="#B1B4C5"/>
<path fill-rule="evenodd" clip-rule="evenodd" d="M139.768 42.4518L130.877 51.4856C130.136 52.2381 130.142 53.448 130.89 54.1933C131.067 54.3697 131.278 54.5095 131.509 54.6044C131.74 54.6993 131.988 54.7475 132.238 54.7462C132.488 54.745 132.736 54.6943 132.966 54.5971C133.197 54.4999 133.406 54.3581 133.581 54.1798L142.472 45.146C142.828 44.7845 143.026 44.2968 143.024 43.7894C143.021 43.2821 142.818 42.7964 142.459 42.4384C142.281 42.2619 142.071 42.1222 141.84 42.0273C141.608 41.9324 141.36 41.8841 141.11 41.8854C140.86 41.8867 140.613 41.9373 140.382 42.0346C140.152 42.1318 139.943 42.2736 139.768 42.4518Z" fill="#B1B4C5"/>
<path fill-rule="evenodd" clip-rule="evenodd" d="M142.472 60.4273L133.581 51.3936C133.406 51.2153 133.197 51.0735 132.966 50.9763C132.736 50.8791 132.488 50.8284 132.238 50.8271C131.988 50.8259 131.74 50.8741 131.509 50.969C131.278 51.0639 131.067 51.2036 130.89 51.3801C130.142 52.1253 130.136 53.3353 130.877 54.0877L139.768 63.1215C139.943 63.2998 140.152 63.4416 140.382 63.5388C140.613 63.636 140.86 63.6867 141.11 63.6879C141.36 63.6892 141.608 63.641 141.84 63.5461C142.071 63.4512 142.281 63.3115 142.459 63.135C142.818 62.777 143.021 62.2913 143.024 61.7839C143.026 61.2766 142.828 60.7888 142.472 60.4273Z" fill="#B1B4C5"/>
<path d="M111.763 162.675L84.4544 123.674C83.7987 122.737 84.0263 121.446 84.9628 120.791C85.8993 120.135 87.1901 120.363 87.8458 121.299L115.155 160.3C115.81 161.237 115.583 162.527 114.646 163.183C113.71 163.839 112.419 163.611 111.763 162.675Z" fill="#B1B4C5"/>
<path fill-rule="evenodd" clip-rule="evenodd" d="M101.409 162.297L113.909 164.398C114.95 164.574 115.938 163.875 116.119 162.834C116.162 162.588 116.156 162.335 116.101 162.091C116.046 161.847 115.943 161.617 115.799 161.412C115.654 161.208 115.471 161.035 115.259 160.902C115.047 160.769 114.811 160.679 114.565 160.637L102.065 158.536C101.565 158.452 101.051 158.569 100.637 158.862C100.223 159.155 99.9417 159.6 99.8546 160.1C99.8117 160.346 99.8179 160.599 99.8729 160.843C99.9279 161.087 100.031 161.318 100.175 161.522C100.32 161.726 100.503 161.899 100.715 162.032C100.927 162.165 101.163 162.255 101.409 162.297Z" fill="#B1B4C5"/>
<path fill-rule="evenodd" clip-rule="evenodd" d="M114.582 149.771L112.282 162.236C112.237 162.482 112.24 162.734 112.293 162.979C112.345 163.223 112.446 163.455 112.588 163.661C112.731 163.866 112.912 164.042 113.123 164.177C113.333 164.312 113.568 164.404 113.815 164.448C114.854 164.633 115.849 163.945 116.04 162.906L118.341 150.441C118.386 150.195 118.382 149.943 118.33 149.698C118.277 149.454 118.177 149.222 118.034 149.016C117.892 148.811 117.71 148.635 117.5 148.5C117.289 148.365 117.054 148.273 116.808 148.229C116.309 148.14 115.794 148.252 115.377 148.541C114.96 148.83 114.674 149.272 114.582 149.771Z" fill="#B1B4C5"/>
<path d="M230.792 122.995L203.483 161.996C202.827 162.932 203.055 164.223 203.991 164.879C204.928 165.535 206.219 165.307 206.874 164.37L234.183 125.369C234.839 124.433 234.611 123.142 233.675 122.486C232.738 121.831 231.448 122.058 230.792 122.995Z" fill="#B1B4C5"/>
<path fill-rule="evenodd" clip-rule="evenodd" d="M220.438 123.373L232.937 121.271C233.979 121.096 234.966 121.795 235.148 122.835C235.191 123.082 235.184 123.334 235.129 123.578C235.074 123.822 234.972 124.053 234.827 124.257C234.683 124.461 234.499 124.635 234.288 124.768C234.076 124.901 233.84 124.99 233.593 125.032L221.093 127.133C220.593 127.218 220.08 127.1 219.666 126.807C219.252 126.514 218.97 126.069 218.883 125.569C218.84 125.323 218.846 125.071 218.901 124.827C218.956 124.583 219.059 124.352 219.204 124.148C219.348 123.944 219.531 123.77 219.743 123.637C219.955 123.504 220.191 123.414 220.438 123.373Z" fill="#B1B4C5"/>
<path fill-rule="evenodd" clip-rule="evenodd" d="M233.611 135.898L231.311 123.434C231.265 123.188 231.269 122.935 231.321 122.691C231.374 122.446 231.474 122.214 231.617 122.009C231.759 121.803 231.941 121.628 232.151 121.493C232.362 121.358 232.597 121.265 232.843 121.222C233.883 121.036 234.877 121.725 235.069 122.764L237.369 135.228C237.415 135.474 237.411 135.727 237.358 135.971C237.306 136.216 237.205 136.447 237.063 136.653C236.921 136.859 236.739 137.034 236.528 137.169C236.318 137.304 236.083 137.396 235.837 137.44C235.337 137.529 234.823 137.417 234.406 137.128C233.989 136.839 233.703 136.397 233.611 135.898Z" fill="#B1B4C5"/>
<defs>
<linearGradient id="paint0_linear_3_117" x1="55.0524" y1="0" x2="55.0524" y2="108.44" gradientUnits="userSpaceOnUse">
<stop stop-color="white" stop-opacity="0.097"/>
<stop offset="1" stop-color="white" stop-opacity="0"/>
</linearGradient>
<linearGradient id="paint1_linear_3_117" x1="258.433" y1="0" x2="258.433" y2="108.44" gradientUnits="userSpaceOnUse">
<stop stop-color="white" stop-opacity="0.097"/>
<stop offset="1" stop-color="white" stop-opacity="0"/>
</linearGradient>
<linearGradient id="paint2_linear_3_117" x1="157" y1="165.605" x2="157" y2="274.046" gradientUnits="userSpaceOnUse">
<stop stop-color="white" stop-opacity="0.097"/>
<stop offset="1" stop-color="white" stop-opacity="0"/>
</linearGradient>
</defs>
</svg>
